<svg width="27" height="22" viewBox="0 0 27 22" xmlns="http://www.w3.org/2000/svg"><title>icon-linkout</title>
<g fill="#095f90">
    <path d="M18 16.5L21.3 14.3 21.3 17.8C21.3 18.7 20.9 19.5 20.3 20.1 19.7 20.8 18.9 21.1 18 21.1L3.3 21.1C2.4 21.1 1.6 20.8 1 20.1 0.3 19.5 0 18.7 0 17.8L0 4.7C0 3.8 0.3 3.1 1 2.4 1.6 1.8 2.4 1.5 3.3 1.5L12.5 1.5 12.5 2.8C10.6 3.1 8.9 3.7 7.5 4.7L3.3 4.7 3.3 17.8 18 17.8 18 16.5 18 16.5ZM25.9 7.5C26.1 7.7 26.2 7.8 26.2 8 26.2 8.2 26.1 8.4 25.9 8.5L15.6 15.5C15.5 15.6 15.4 15.6 15.3 15.6 15.2 15.6 15.1 15.6 15 15.6 14.8 15.5 14.7 15.3 14.7 15.1L14.7 11.2C13.6 11.3 12.5 11.4 11.5 11.5 10.5 11.7 9.8 11.9 9.2 12.1 8.6 12.3 8.1 12.5 7.7 12.8 7.2 13 6.9 13.2 6.8 13.3 6.7 13.5 6.6 13.6 6.5 13.7L6.5 13.7C6.4 13.9 6.2 14 6 14L5.9 14C5.6 13.9 5.5 13.8 5.5 13.5 5.5 11 6.2 9.1 7.6 7.5 9.3 5.8 11.6 4.9 14.7 4.8L14.7 0.9C14.7 0.7 14.8 0.5 15 0.4 15.2 0.3 15.4 0.3 15.6 0.5L25.9 7.5Z"/>
</g>
</svg>