<?xml version="1.0" encoding="UTF-8"?>
<svg width="247px" height="29px" viewBox="0 0 247 29" version="1.1" xmlns="http://www.w3.org/2000/svg" xmlns:xlink="http://www.w3.org/1999/xlink">
    <!-- Generator: Sketch 47.1 (45422) - http://www.bohemiancoding.com/sketch -->
    <title>eu_flag_cef</title>
    <desc>Created with Sketch.</desc>
    <defs></defs>
    <g id="Page-1" stroke="none" stroke-width="1" fill="none" fill-rule="evenodd">
        <g id="eu_flag_cef">
            <g id="Group" transform="translate(0.000000, 1.000000)" fill-rule="nonzero">
                <polygon id="Shape" fill="#034EA2" points="0 0.4 40.8 0.4 40.8 26.8 0 26.8"></polygon>
                <polygon id="Shape" fill="#FFF200" points="19.5 6.1 20.4 5.5 21.3 6.1 20.9 5.1 21.8 4.5 20.7 4.5 20.4 3.5 20.1 4.5 19 4.5 19.9 5.1"></polygon>
                <polygon id="Shape" fill="#FFF200" points="15.1 7.3 15.9 6.7 16.8 7.3 16.5 6.3 17.4 5.7 16.3 5.7 15.9 4.7 15.6 5.7 14.5 5.7 15.4 6.3"></polygon>
                <polygon id="Shape" fill="#FFF200" points="12.7 7.8 12.4 8.8 11.3 8.8 12.2 9.5 11.8 10.4 12.7 9.8 13.5 10.4 13.2 9.5 14.1 8.8 13 8.8"></polygon>
                <polygon id="Shape" fill="#FFF200" points="11.5 14.2 12.3 14.8 12 13.8 12.9 13.2 11.8 13.2 11.5 12.2 11.2 13.2 10.1 13.2 11 13.8 10.6 14.8"></polygon>
                <polygon id="Shape" fill="#FFF200" points="13 17.5 12.7 16.5 12.4 17.5 11.3 17.5 12.2 18.1 11.8 19.1 12.7 18.5 13.5 19.1 13.2 18.1 14.1 17.5"></polygon>
                <polygon id="Shape" fill="#FFF200" points="16.3 20.7 16 19.7 15.6 20.7 14.5 20.7 15.4 21.3 15.1 22.3 16 21.7 16.8 22.3 16.5 21.3 17.4 20.7"></polygon>
                <polygon id="Shape" fill="#FFF200" points="20.7 21.8 20.4 20.8 20.1 21.8 19 21.8 19.9 22.4 19.5 23.4 20.4 22.8 21.3 23.4 20.9 22.4 21.8 21.8"></polygon>
                <polygon id="Shape" fill="#FFF200" points="25.2 20.7 24.9 19.7 24.5 20.7 23.4 20.7 24.3 21.3 24 22.3 24.9 21.7 25.7 22.3 25.4 21.3 26.3 20.7"></polygon>
                <polygon id="Shape" fill="#FFF200" points="28.5 17.5 28.1 16.5 27.8 17.5 26.7 17.5 27.6 18.1 27.3 19.1 28.1 18.5 29 19.1 28.7 18.1 29.5 17.5"></polygon>
                <polygon id="Shape" fill="#FFF200" points="30.7 13.2 29.6 13.2 29.3 12.2 29 13.2 27.9 13.2 28.8 13.8 28.4 14.8 29.3 14.1 30.2 14.8 29.8 13.8"></polygon>
                <polygon id="Shape" fill="#FFF200" points="27.3 10.4 28.1 9.8 29 10.4 28.7 9.4 29.5 8.8 28.5 8.8 28.1 7.8 27.8 8.8 26.7 8.8 27.6 9.4"></polygon>
                <polygon id="Shape" fill="#FFF200" points="24.9 4.7 24.5 5.7 23.5 5.7 24.3 6.3 24 7.3 24.9 6.7 25.7 7.3 25.4 6.3 26.3 5.7 25.2 5.7"></polygon>
            </g>
            <g id="Group" transform="translate(49.000000, 0.000000)" fill-rule="nonzero" fill="#FFFFFF">
                <path d="M0.4,5.9 C0.4,5.3 0.4,4.8 0.5,4.3 C0.6,3.8 0.8,3.3 1,2.9 C1.3,2.5 1.6,2.1 2.1,1.9 C2.6,1.7 3.2,1.5 3.9,1.5 C4.1,1.5 4.2,1.5 4.4,1.5 C4.6,1.5 4.8,1.5 5,1.6 C5.2,1.6 5.4,1.7 5.6,1.7 C5.8,1.7 6,1.8 6.2,1.9 C6.3,1.9 6.4,2 6.4,2.1 C6.4,2.2 6.4,2.2 6.4,2.3 L6.3,2.8 C6.3,2.9 6.3,2.9 6.2,3 C6.2,3 6.1,3 6,3 C5.7,3 5.3,2.9 5,2.9 C4.6,2.9 4.3,2.8 3.9,2.8 C3.5,2.8 3.1,2.9 2.8,3 C2.5,3.2 2.3,3.4 2.2,3.7 C2.1,4 2,4.3 1.9,4.7 C2,5.1 2,5.5 2,5.9 C2,6.3 2,6.7 2.1,7.1 C2.2,7.5 2.3,7.8 2.4,8.1 C2.5,8.4 2.8,8.6 3,8.7 C3.3,8.9 3.6,8.9 4,8.9 C4.4,8.9 4.7,8.9 5.1,8.8 C5.4,8.8 5.8,8.7 6.1,8.7 C6.2,8.7 6.3,8.7 6.3,8.7 C6.3,8.7 6.4,8.8 6.4,8.9 L6.5,9.4 C6.6,9.6 6.5,9.7 6.3,9.8 C6.2,10 6,10 5.8,10.1 C5.6,10.1 5.4,10.2 5.2,10.2 C5,10.2 4.8,10.3 4.6,10.3 C4.4,10.3 4.2,10.3 4,10.3 C3.3,10.3 2.7,10.2 2.2,9.9 C1.7,9.6 1.4,9.3 1.1,8.9 C0.8,8.5 0.7,8 0.6,7.5 C0.4,7 0.4,6.5 0.4,5.9 Z" id="Shape"></path>
                <path d="M13.1,6.9 C13.1,7.3 13.1,7.7 13,8.1 C13,8.5 12.8,8.9 12.6,9.2 C12.4,9.5 12.1,9.8 11.7,10 C11.3,10.2 10.8,10.3 10.1,10.3 C9.5,10.3 8.9,10.2 8.6,10 C8.2,9.8 7.9,9.5 7.8,9.2 C7.6,8.9 7.5,8.5 7.5,8.1 C7.5,7.7 7.4,7.3 7.4,6.9 C7.4,6.6 7.4,6.3 7.5,5.9 C7.6,5.5 7.7,5.2 7.9,4.9 C8.1,4.6 8.4,4.3 8.7,4.1 C9.1,3.9 9.6,3.8 10.2,3.8 C10.8,3.8 11.3,3.9 11.7,4.1 C12.1,4.3 12.4,4.5 12.6,4.8 C12.8,5.1 12.9,5.5 13,5.8 C13.1,6.1 13.1,6.5 13.1,6.9 Z M11.7,7 C11.7,6.7 11.7,6.4 11.6,6.1 C11.6,5.8 11.5,5.6 11.4,5.5 C11.3,5.3 11.2,5.1 11,5 C10.8,4.9 10.6,4.9 10.3,4.9 C10,4.9 9.8,4.9 9.6,5 C9.4,5.1 9.3,5.2 9.2,5.4 C9.1,5.6 9,5.8 9,6.1 C9,6.4 8.9,6.7 8.9,7 C8.9,7.3 8.9,7.6 9,7.9 C9,8.2 9.1,8.4 9.2,8.5 C9.3,8.7 9.4,8.8 9.6,8.9 C9.7,9 10,9 10.2,9 C10.5,9 10.7,9 10.9,8.9 C11.1,8.8 11.2,8.7 11.3,8.5 C11.4,8.3 11.5,8.1 11.5,7.9 C11.6,7.6 11.7,7.3 11.7,7 Z" id="Shape"></path>
                <path d="M18.1,5.4 C18.2,5.4 18.3,5.5 18.3,5.6 L18.3,6.3 C18.3,6.4 18.2,6.5 18.1,6.5 L14.3,6.5 C14.2,6.5 14.1,6.4 14.1,6.3 L14.1,5.7 C14.1,5.6 14.2,5.5 14.3,5.5 L18.1,5.5 L18.1,5.4 Z" id="Shape"></path>
                <path d="M22.5,0.9 C22.6,0.9 22.8,0.9 22.9,0.9 C23,0.9 23.2,0.9 23.4,0.9 C23.6,0.9 23.8,1 24,1 C24.2,1 24.3,1.1 24.5,1.1 C24.6,1.1 24.7,1.2 24.7,1.3 C24.7,1.4 24.7,1.4 24.7,1.5 L24.6,2 C24.6,2.1 24.5,2.1 24.5,2.2 C24.4,2.2 24.4,2.2 24.3,2.2 C24,2.2 23.7,2.1 23.5,2.1 C23.2,2.1 23,2.1 22.8,2.1 C22.4,2.1 22.1,2.2 21.9,2.3 C21.7,2.5 21.6,2.7 21.6,3.2 L21.6,3.8 L25,3.8 C25.1,3.8 25.2,3.8 25.2,3.9 C25.2,3.9 25.2,4 25.2,4.1 L25.2,10 C25.2,10.1 25.2,10.1 25.2,10.2 C25.2,10.2 25.1,10.3 25,10.3 L24.1,10.3 C23.9,10.3 23.8,10.2 23.8,10.1 L23.8,5.1 L21.6,5.1 L21.6,10.1 C21.6,10.2 21.6,10.2 21.6,10.3 C21.6,10.3 21.5,10.4 21.4,10.4 L20.5,10.4 C20.3,10.4 20.2,10.3 20.2,10.2 L20.2,5.2 L19.6,5.2 C19.4,5.2 19.4,5.1 19.4,5 L19.4,4.1 C19.4,3.9 19.5,3.8 19.6,3.8 L20,3.8 L20,3 C20,2.3 20.2,1.8 20.6,1.4 C21,1 21.6,0.9 22.5,0.9 Z" id="Shape"></path>
                <path d="M32,10.1 C32,10.1 31.9,10.2 31.8,10.2 L30.9,10.2 C30.7,10.2 30.7,10.1 30.7,10 L30.7,6.3 C30.7,5.9 30.6,5.6 30.5,5.4 C30.3,5.1 30,5 29.6,5 C29.5,5 29.3,5 29.2,5.1 C29.1,5.2 28.9,5.2 28.7,5.3 C28.5,5.4 28.4,5.4 28.2,5.5 C28,5.6 28,5.5 27.9,5.6 L27.9,9.9 C27.9,10.1 27.8,10.1 27.7,10.1 L26.8,10.1 C26.6,10.1 26.6,10 26.6,9.9 L26.6,4.1 C26.6,3.9 26.7,3.8 26.8,3.8 L27.7,3.8 C27.9,3.8 27.9,3.9 27.9,4.1 L27.9,4.5 C27.9,4.5 27.9,4.5 27.9,4.5 C27.9,4.5 27.9,4.5 27.9,4.5 C28,4.4 28.2,4.3 28.3,4.2 C28.5,4.1 28.6,4 28.8,3.9 C29,3.8 29.2,3.8 29.4,3.7 C29.6,3.7 29.8,3.6 30,3.6 C30.4,3.6 30.8,3.7 31,3.8 C31.3,3.9 31.4,4.1 31.6,4.3 C31.7,4.5 31.8,4.8 31.8,5.1 C31.8,5.4 32,5.8 32,6.1 L32,9.9 C32,10 32,10.1 32,10.1 Z" id="Shape"></path>
                <path d="M37.4,9.4 C37.1,9.7 36.7,9.9 36.3,10 C35.9,10.2 35.5,10.2 35,10.2 C34.7,10.2 34.4,10.2 34.1,10.1 C33.9,10 33.7,9.9 33.6,9.7 C33.5,9.5 33.4,9.3 33.3,9.1 C33.2,8.9 33.2,8.6 33.2,8.3 C33.2,7.5 33.4,7 33.8,6.6 C34.2,6.3 34.8,6.1 35.6,6.1 L37.3,6.1 L37.3,5.9 C37.3,5.7 37.3,5.5 37.2,5.4 C37.2,5.3 37.1,5.2 37,5.1 C36.9,5 36.8,5 36.6,4.9 C36.4,4.9 36.2,4.8 35.9,4.8 C35.8,4.8 35.7,4.8 35.5,4.8 C35.3,4.8 35.2,4.8 35,4.8 C34.8,4.8 34.7,4.8 34.5,4.8 C34.3,4.8 34.2,4.8 34.1,4.8 C34,4.8 33.9,4.8 33.8,4.8 C33.8,4.8 33.7,4.7 33.7,4.6 L33.6,4.1 C33.6,4 33.6,3.9 33.6,3.9 C33.6,3.9 33.9,4 34,3.9 C34.1,3.8 34.3,3.8 34.5,3.8 C34.7,3.8 34.9,3.7 35.1,3.7 C35.3,3.7 35.5,3.7 35.7,3.6 C35.9,3.6 36.1,3.6 36.2,3.6 C36.8,3.6 37.2,3.7 37.5,3.8 C37.8,3.9 38.1,4.1 38.3,4.3 C38.5,4.5 38.6,4.8 38.6,5 C38.7,5.3 38.7,5.6 38.7,6 L38.7,8.5 C38.7,8.6 38.7,8.7 38.7,8.8 C38.7,8.9 38.7,8.9 38.8,9 C38.8,9 38.9,9.1 38.9,9.1 C39,9.1 39,9.1 39.1,9.1 C39.2,9.1 39.3,9.1 39.3,9.2 C39.3,9.2 39.4,9.3 39.4,9.3 L39.4,9.8 C39.4,9.9 39.3,10 39.1,10.1 C39,10.1 38.9,10.1 38.8,10.1 C38.7,10.1 38.6,10.1 38.5,10.1 C38.2,10.1 38,10 37.8,9.9 C37.6,9.8 37.5,9.7 37.4,9.4 L37.4,9.4 Z M37.3,7.3 L35.7,7.3 C35.4,7.3 35.1,7.4 34.9,7.5 C34.7,7.6 34.6,7.9 34.6,8.4 C34.6,8.7 34.7,8.9 34.8,9 C34.9,9.1 35.1,9.2 35.4,9.2 C35.5,9.2 35.7,9.2 35.9,9.1 C36.1,9 36.2,9 36.4,9 C36.6,8.9 36.7,8.9 36.9,8.8 C37.1,8.7 37.2,8.7 37.3,8.6 L37.3,7.3 L37.3,7.3 Z" id="Shape"></path>
                <path d="M45.8,10.1 C45.8,10.1 45.7,10.2 45.6,10.2 L44.7,10.2 C44.5,10.2 44.5,10.1 44.5,10 L44.5,6.3 C44.5,5.9 44.4,5.6 44.3,5.4 C44.2,5.1 43.9,5 43.5,5 C43.4,5 43.2,5 43.1,5.1 C43,5.2 42.8,5.2 42.6,5.3 C42.4,5.4 42.3,5.4 42.1,5.5 C41.9,5.6 41.8,5.6 41.7,5.7 L41.7,10 C41.7,10.2 41.6,10.2 41.5,10.2 L40.6,10.2 C40.4,10.2 40.4,10.1 40.4,10 L40.4,4.1 C40.4,3.9 40.5,3.8 40.6,3.8 L41.5,3.8 C41.7,3.8 41.7,3.9 41.7,4.1 L41.7,4.5 C41.7,4.5 41.7,4.5 41.7,4.5 C41.7,4.5 41.7,4.5 41.7,4.5 C41.8,4.4 42,4.3 42.1,4.2 C42.3,4.1 42.4,4 42.6,3.9 C42.8,3.8 43,3.8 43.2,3.7 C43.4,3.7 43.6,3.6 43.8,3.6 C44.2,3.6 44.6,3.7 44.8,3.8 C45.1,3.9 45.2,4.1 45.4,4.3 C45.5,4.5 45.6,4.8 45.6,5.1 C45.6,5.4 45.7,5.7 45.7,6 L45.7,9.8 C45.9,10 45.9,10.1 45.8,10.1 Z" id="Shape"></path>
                <path d="M52.1,9.6 C52.1,9.7 52.1,9.8 52.1,9.8 C52.1,9.8 52,9.9 51.9,10 C51.6,10.1 51.3,10.2 51,10.2 C50.6,10.2 50.3,10.3 50,10.3 C49.4,10.3 48.9,10.2 48.5,10 C48.1,9.8 47.9,9.6 47.7,9.3 C47.5,9 47.4,8.6 47.3,8.2 C47.2,7.8 47.2,7.4 47.2,6.9 C47.2,6.5 47.2,6.1 47.3,5.7 C47.4,5.3 47.5,5 47.7,4.6 C47.9,4.3 48.2,4 48.5,3.9 C48.9,3.7 49.4,3.6 49.9,3.6 C50,3.6 50.2,3.6 50.4,3.6 C50.6,3.6 50.8,3.6 50.9,3.7 C51.1,3.7 51.3,3.8 51.4,3.8 C51.5,3.8 51.7,3.9 51.9,4 C52.1,4.1 52.1,4.2 52.1,4.4 L52,4.9 C52,5 51.9,5.1 51.9,5.1 C51.8,5.1 51.7,5.1 51.6,5.1 C51.3,5 51,5 50.8,5 C50.6,5 50.3,5 50,5 C49.5,5 49.1,5.2 48.9,5.5 C48.7,5.8 48.6,6.3 48.6,7 C48.6,7.4 48.6,7.7 48.7,8 C48.7,8.3 48.8,8.5 48.9,8.6 C49,8.8 49.2,8.9 49.3,8.9 C49.5,9 49.7,9 50,9 C50.2,9 50.5,9 50.8,9 C51.1,9 51.4,9 51.7,8.9 C51.8,8.9 51.9,8.9 51.9,8.9 C52,8.9 52,9 52,9.1 L52.1,9.6 Z" id="Shape"></path>
                <path d="M54.4,7.4 C54.4,7.7 54.4,8 54.5,8.2 C54.6,8.4 54.7,8.6 54.8,8.7 C54.9,8.8 55.1,8.9 55.3,9 C55.5,9.1 55.7,9.1 56,9.1 C56.2,9.1 56.5,9.1 56.8,9 C57.1,9 57.4,8.9 57.7,8.9 C57.8,8.9 57.9,8.9 58,8.9 C58,8.9 58.1,9 58.1,9.1 L58.2,9.5 C58.2,9.6 58.2,9.7 58.2,9.7 C58.2,9.8 58.1,9.8 58,9.9 C57.9,10 57.7,10 57.5,10 C57.3,10 57.1,10.1 57,10.1 C56.8,10.1 56.6,10.1 56.4,10.2 C56.2,10.2 56,10.2 55.9,10.2 C55.3,10.2 54.8,10.1 54.4,9.9 C54,9.7 53.7,9.5 53.5,9.2 C53.3,8.9 53.2,8.5 53.1,8.2 C53,7.8 53,7.4 53,7 C53,6.7 53,6.3 53.1,5.9 C53.2,5.5 53.3,5.1 53.5,4.8 C53.7,4.5 54,4.2 54.3,3.9 C54.7,3.7 55.2,3.6 55.8,3.6 C56.4,3.6 56.9,3.7 57.2,3.9 C57.6,4.1 57.8,4.3 58,4.6 C58.2,4.9 58.3,5.2 58.4,5.5 C58.5,5.9 58.5,6.2 58.5,6.5 C58.5,6.7 58.5,6.9 58.4,7.1 C58.3,7.2 58.1,7.3 57.9,7.3 L54.4,7.3 L54.4,7.4 Z M55.7,4.8 C55.5,4.8 55.3,4.8 55.1,4.9 C54.9,5 54.8,5.1 54.7,5.2 C54.6,5.3 54.5,5.5 54.5,5.7 C54.5,5.9 54.4,6.1 54.4,6.4 L57,6.4 C57,6.2 57,6 56.9,5.8 C56.9,5.6 56.8,5.4 56.7,5.3 C56.6,5.2 56.5,5 56.3,5 C56.1,5 56,4.8 55.7,4.8 Z" id="Shape"></path>
                <path d="M65.1,9.9 C65.1,10 65.1,10 65.1,10.1 C65.1,10.2 65,10.2 64.9,10.2 L64,10.2 C63.8,10.2 63.8,10.1 63.8,10 L63.8,9.6 C63.8,9.6 63.8,9.6 63.8,9.6 C63.8,9.6 63.8,9.6 63.8,9.6 C63.7,9.7 63.6,9.8 63.4,9.9 C63.2,10 63.1,10.1 62.9,10.2 C62.7,10.3 62.5,10.3 62.3,10.4 C62.1,10.4 61.9,10.5 61.7,10.5 C61.3,10.5 60.9,10.4 60.7,10.3 C60.5,10.2 60.2,9.9 60.1,9.7 C59.9,9.4 59.8,9.1 59.8,8.7 C59.8,8.3 59.7,7.9 59.7,7.4 C59.7,6.9 59.7,6.4 59.8,6 C59.9,5.6 60,5.2 60.2,4.9 C60.4,4.6 60.7,4.4 61,4.2 C61.3,4 61.8,4 62.3,4 C62.8,4 63.4,4.1 63.9,4.3 C63.9,4.3 63.9,4.3 63.9,4.3 C63.9,4.3 63.9,4.3 63.9,4.3 L63.9,1.3 C63.9,1.2 63.9,1.1 63.9,1.1 C63.9,1.1 64,1 64.1,1 L65,1 C65.1,1 65.2,1 65.2,1.1 C65.2,1.1 65.2,1.2 65.2,1.3 L65.2,9.9 L65.1,9.9 Z M63.7,5.1 C63.4,5 63.2,5 62.9,5 C62.7,5 62.4,5 62.2,5 C62,5 61.8,5 61.6,5.1 C61.4,5.2 61.3,5.3 61.2,5.5 C61.1,5.7 61,5.9 61,6.2 C61,6.5 60.9,6.8 60.9,7.2 C60.9,7.6 60.9,8 61,8.2 C61,8.5 61.1,8.7 61.2,8.8 C61.3,8.9 61.4,9 61.5,9.1 C61.6,9.1 61.8,9.2 61.9,9.2 C62,9.2 62.2,9.2 62.3,9.1 C62.5,9.1 62.6,9 62.8,8.9 C63,8.8 63.1,8.8 63.3,8.7 C63.4,8.6 63.6,8.6 63.7,8.5 L63.7,5.1 L63.7,5.1 Z" id="Shape"></path>
                <path d="M75.8,6.9 C75.8,7.4 75.8,7.9 75.7,8.3 C75.6,8.7 75.5,9.1 75.3,9.4 C75.1,9.7 74.8,9.9 74.4,10.1 C74,10.3 73.6,10.3 73,10.3 C72.8,10.3 72.6,10.3 72.3,10.3 C72.1,10.3 71.8,10.3 71.6,10.2 C71.4,10.2 71.2,10.1 71,10.1 C70.8,10.1 70.6,10 70.5,10 C70.4,9.9 70.3,9.9 70.2,9.8 C70.1,9.7 70.1,9.6 70.1,9.5 L70.1,1.3 C70.1,1.1 70.2,1.1 70.4,1.1 L71.3,1.1 C71.4,1.1 71.5,1.1 71.5,1.2 C71.5,1.2 71.6,1.3 71.6,1.4 L71.6,4 C71.9,3.9 72.2,3.8 72.5,3.8 C72.8,3.8 73,3.7 73.2,3.7 C73.7,3.7 74.2,3.8 74.5,3.9 C74.8,4.1 75.1,4.3 75.3,4.6 C75.5,4.9 75.6,5.2 75.7,5.6 C75.8,6 75.8,6.4 75.8,6.9 Z M74.3,7 C74.3,6.6 74.3,6.3 74.2,6 C74.2,5.7 74.1,5.5 74,5.4 C73.9,5.2 73.8,5.1 73.6,5 C73.4,4.9 73.3,4.9 73.1,4.9 C73,4.9 72.8,4.9 72.7,4.9 C72.6,4.9 72.5,4.9 72.4,4.9 C72.3,4.9 72.2,4.9 72,5 C71.8,5.1 71.7,5.1 71.5,5.1 L71.5,8.9 C71.7,8.9 71.9,9 72.2,9 C72.4,9 72.6,9 72.9,9 C73.1,9 73.3,9 73.5,8.9 C73.7,8.9 73.8,8.8 73.9,8.6 C74,8.5 74.1,8.3 74.2,8 C74.3,7.8 74.3,7.5 74.3,7 Z" id="Shape"></path>
                <path d="M79.3,8.3 C79.4,8 79.5,7.8 79.6,7.5 C79.7,7.3 79.8,7.1 79.8,6.9 C79.9,6.7 79.9,6.5 80,6.3 L80.8,3.9 C80.8,3.8 80.9,3.8 80.9,3.7 C80.9,3.7 81,3.6 81.1,3.6 L82.1,3.6 C82.2,3.6 82.3,3.6 82.3,3.7 C82.3,3.8 82.3,3.8 82.3,3.9 L79.3,12.2 C79.3,12.3 79.2,12.3 79.2,12.4 C79.2,12.4 79.1,12.5 79,12.5 L78,12.5 C77.9,12.5 77.8,12.5 77.8,12.4 C77.8,12.3 77.8,12.3 77.8,12.2 L78.6,10 L76.3,4 C76.3,3.9 76.3,3.9 76.3,3.8 C76.3,3.7 76.4,3.7 76.5,3.7 L77.5,3.7 C77.6,3.7 77.6,3.7 77.7,3.7 C77.7,3.7 77.8,3.8 77.8,3.9 L78.6,6.3 L79.3,8.3 L79.3,8.3 Z" id="Shape"></path>
                <path d="M90.8,9.7 C90.8,9.8 90.8,10 90.6,10 C90.5,10.1 90.4,10.1 90.2,10.1 C90,10.1 89.9,10.2 89.7,10.2 C89.5,10.2 89.4,10.2 89.2,10.2 C89.1,10.2 88.9,10.2 88.8,10.2 C88.4,10.2 88.1,10.1 87.9,10 C87.7,9.9 87.5,9.7 87.4,9.6 C87.3,9.4 87.2,9.2 87.2,8.9 C87.2,8.6 87.2,8.4 87.2,8.1 L87.2,4.9 L86.6,4.9 C86.5,4.9 86.4,4.9 86.4,4.8 C86.4,4.7 86.3,4.7 86.3,4.6 L86.3,4.1 C86.3,4 86.3,3.9 86.4,3.9 C86.4,3.9 86.5,3.8 86.6,3.8 L87.3,3.8 L87.3,2.5 C87.3,2.4 87.3,2.3 87.4,2.3 C87.4,2.3 87.5,2.2 87.6,2.2 L88.5,2 C88.7,2 88.8,2 88.8,2.2 L88.8,3.9 L90.2,3.9 C90.3,3.9 90.4,3.9 90.4,4 C90.4,4 90.4,4.1 90.4,4.2 L90.4,4.8 C90.4,4.9 90.4,4.9 90.4,5 C90.4,5.1 90.3,5.1 90.2,5.1 L88.8,5.1 L88.8,8.3 C88.8,8.5 88.8,8.6 88.8,8.7 C88.8,8.8 88.9,8.9 88.9,8.9 C89,8.9 89.1,9 89.2,9 C89.3,9 89.5,9 89.6,9 C89.7,9 89.8,9 90,9 C90.2,9 90.3,9 90.5,9 C90.6,9 90.6,9 90.7,9 C90.7,9 90.8,9.1 90.8,9.2 L90.8,9.7 Z" id="Shape"></path>
                <path d="M96.8,10.2 L95.9,10.2 C95.7,10.2 95.6,10.1 95.6,10 C95.6,9.4 95.6,8.7 95.6,8.1 C95.6,7.5 95.6,6.9 95.6,6.2 C95.6,5.8 95.5,5.5 95.4,5.3 C95.3,5.1 95,5 94.6,5 C94.5,5 94.3,5 94.2,5.1 C94,5.1 93.9,5.2 93.7,5.3 C93.5,5.4 93.4,5.4 93.2,5.5 C93.1,5.6 92.9,5.6 92.8,5.7 L92.8,10.1 C92.8,10.2 92.8,10.2 92.7,10.3 C92.6,10.4 92.6,10.4 92.5,10.4 L91.6,10.4 C91.4,10.4 91.4,10.3 91.4,10.2 L91.4,1.2 C91.4,1 91.5,1 91.6,1 L92.5,1 C92.7,1 92.8,1.1 92.8,1.2 L92.8,4.3 C92.9,4.2 93.1,4.2 93.2,4.1 C93.4,4 93.5,3.9 93.7,3.9 C93.9,3.9 94.1,3.8 94.3,3.7 C94.5,3.7 94.7,3.6 94.9,3.6 C95.4,3.6 95.7,3.7 96,3.8 C96.3,3.9 96.5,4.1 96.6,4.3 C96.7,4.5 96.8,4.8 96.9,5.1 C97,5.4 97,5.7 97,6 L97,9.8 C97.1,10.1 97,10.2 96.8,10.2 Z" id="Shape"></path>
                <path d="M99.8,7.4 C99.8,7.7 99.8,8 99.9,8.2 C100,8.4 100.1,8.6 100.2,8.7 C100.3,8.8 100.5,8.9 100.7,9 C100.9,9.1 101.1,9.1 101.4,9.1 C101.6,9.1 101.9,9.1 102.2,9 C102.5,9 102.8,8.9 103.1,8.9 C103.2,8.9 103.3,8.9 103.4,8.9 C103.4,8.9 103.5,9 103.5,9.1 L103.6,9.5 C103.6,9.6 103.6,9.7 103.6,9.7 C103.6,9.8 103.5,9.8 103.4,9.9 C103.3,10 103.1,10 102.9,10 C102.7,10 102.5,10.1 102.4,10.1 C102.2,10.1 102,10.1 101.8,10.2 C101.6,10.2 101.4,10.2 101.3,10.2 C100.7,10.2 100.2,10.1 99.8,9.9 C99.4,9.7 99.1,9.5 98.9,9.2 C98.7,8.9 98.6,8.5 98.5,8.2 C98.4,7.8 98.4,7.4 98.4,7 C98.4,6.7 98.4,6.3 98.5,5.9 C98.6,5.5 98.7,5.1 98.9,4.8 C99.1,4.5 99.4,4.2 99.7,3.9 C100.1,3.7 100.6,3.6 101.2,3.6 C101.8,3.6 102.3,3.7 102.6,3.9 C103,4.1 103.2,4.3 103.4,4.6 C103.6,4.9 103.7,5.2 103.8,5.5 C103.9,5.9 103.9,6.2 103.9,6.5 C103.9,6.7 103.9,6.9 103.8,7.1 C103.7,7.2 103.5,7.3 103.3,7.3 L99.8,7.3 L99.8,7.4 Z M101.1,4.8 C100.9,4.8 100.7,4.8 100.5,4.9 C100.3,5 100.2,5.1 100.1,5.2 C100,5.3 99.9,5.5 99.9,5.7 C99.9,5.9 99.8,6.1 99.8,6.4 L102.4,6.4 C102.4,6.2 102.4,6 102.3,5.8 C102.3,5.6 102.2,5.4 102.1,5.3 C102,5.2 101.9,5 101.7,5 C101.5,5 101.3,4.8 101.1,4.8 Z" id="Shape"></path>
                <path d="M108.9,1.8 C108.9,1.6 109,1.5 109.2,1.5 L114,1.5 C114.2,1.5 114.2,1.6 114.2,1.7 L114.2,2.5 C114.2,2.7 114.1,2.7 113.9,2.7 L110.4,2.7 L110.4,4.9 L113.5,4.9 C113.7,4.9 113.8,5 113.8,5.1 L113.8,5.9 C113.8,6.1 113.7,6.1 113.5,6.1 L110.4,6.1 L110.4,8.7 L114,8.7 C114.2,8.7 114.2,8.8 114.2,8.9 L114.2,9.7 C114.2,9.9 114.1,9.9 114,9.9 L109.2,9.9 C109,9.9 108.9,9.8 108.9,9.7 L108.9,1.8 L108.9,1.8 Z" id="Shape"></path>
                <path d="M120.8,10.2 L119.9,10.2 C119.8,10.2 119.7,10.2 119.7,10.1 C119.7,10.1 119.6,10 119.6,9.9 L119.6,9.5 L119.6,9.5 C119.5,9.6 119.3,9.7 119.2,9.8 C119.1,9.9 118.9,10 118.7,10.1 C118.5,10.2 118.3,10.2 118.1,10.3 C117.9,10.3 117.7,10.4 117.5,10.4 C117.1,10.4 116.7,10.3 116.5,10.2 C116.2,10.1 116.1,9.9 115.9,9.7 C115.8,9.5 115.7,9.2 115.7,8.9 C115.7,8.6 115.6,8.3 115.6,8 L115.6,4.1 C115.6,3.9 115.7,3.8 115.8,3.8 L116.8,3.8 C117,3.8 117,3.9 117,4.1 L117,7.8 C117,8 117,8.2 117,8.3 C117,8.5 117.1,8.6 117.1,8.7 C117.1,8.8 117.3,8.9 117.4,9 C117.5,9.1 117.7,9.1 117.9,9.1 C118,9.1 118.2,9.1 118.4,9 C118.6,8.9 118.7,8.9 118.9,8.8 C119.1,8.7 119.2,8.7 119.4,8.6 C119.5,8.5 119.6,8.5 119.7,8.4 L119.7,4.1 C119.7,4 119.7,4 119.8,3.9 C119.8,3.9 119.9,3.8 120,3.8 L120.9,3.8 C121.1,3.8 121.1,3.9 121.1,4.1 L121.1,10 C121.1,10.1 121,10.2 120.8,10.2 Z" id="Shape"></path>
                <path d="M124.1,9.9 C124.1,10.1 124,10.1 123.9,10.1 L123,10.1 C122.8,10.1 122.8,10 122.8,9.9 L122.8,4.1 C122.8,3.9 122.9,3.8 123,3.8 L123.9,3.8 C124.1,3.8 124.2,3.9 124.2,4.1 L124.2,4.7 L124.2,4.7 C124.3,4.6 124.4,4.5 124.6,4.4 C124.8,4.3 124.9,4.2 125.1,4.1 C125.3,4 125.5,3.9 125.6,3.9 C125.8,3.8 126,3.8 126.1,3.8 C126.2,3.8 126.3,3.8 126.3,3.8 C126.4,3.8 126.4,3.9 126.4,4 L126.5,4.9 C126.5,5 126.5,5.1 126.5,5.1 C126.5,5.1 126.4,5.2 126.3,5.2 C126.1,5.2 125.9,5.3 125.7,5.3 C125.5,5.3 125.3,5.4 125.1,5.5 C124.9,5.6 124.7,5.6 124.6,5.7 C124.4,5.8 124.3,5.8 124.2,5.9 L124.2,9.9 L124.1,9.9 Z" id="Shape"></path>
                <path d="M132.7,6.9 C132.7,7.3 132.7,7.7 132.6,8.1 C132.6,8.5 132.4,8.9 132.2,9.2 C132,9.5 131.7,9.8 131.3,10 C130.9,10.2 130.4,10.3 129.7,10.3 C129.1,10.3 128.5,10.2 128.2,10 C127.8,9.8 127.5,9.5 127.4,9.2 C127.2,8.9 127.1,8.5 127.1,8.1 C127.1,7.7 127,7.3 127,6.9 C127,6.6 127,6.3 127.1,5.9 C127.2,5.5 127.3,5.2 127.5,4.9 C127.7,4.6 128,4.3 128.3,4.1 C128.6,3.9 129.2,3.8 129.8,3.8 C130.4,3.8 130.9,3.9 131.3,4.1 C131.7,4.3 132,4.5 132.2,4.8 C132.4,5.1 132.5,5.5 132.6,5.8 C132.7,6.1 132.7,6.5 132.7,6.9 Z M131.3,7 C131.3,6.7 131.3,6.4 131.2,6.1 C131.2,5.8 131.1,5.6 131,5.5 C130.9,5.3 130.8,5.2 130.6,5.1 C130.4,5 130.2,5 129.9,5 C129.6,5 129.4,5 129.2,5.1 C129,5.2 128.9,5.3 128.8,5.5 C128.7,5.7 128.6,5.9 128.6,6.1 C128.6,6.4 128.5,6.7 128.5,7 C128.5,7.3 128.5,7.6 128.6,7.9 C128.6,8.2 128.7,8.4 128.8,8.5 C128.9,8.7 129,8.8 129.2,8.9 C129.4,9 129.6,9 129.9,9 C130.2,9 130.4,9 130.6,8.9 C130.8,8.8 130.9,8.7 131,8.5 C131.1,8.3 131.2,8.1 131.2,7.9 C131.2,7.6 131.3,7.3 131.3,7 Z" id="Shape"></path>
                <path d="M139.6,6.9 C139.6,7.4 139.6,7.9 139.5,8.3 C139.4,8.7 139.3,9.1 139.1,9.4 C138.9,9.7 138.6,9.9 138.3,10 C138,10.1 137.5,10.2 137,10.2 C136.8,10.2 136.5,10.2 136.3,10.1 C136.1,10 135.7,10 135.4,9.9 L135.4,9.9 L135.4,12.2 C135.4,12.3 135.4,12.3 135.4,12.4 C135.4,12.5 135.3,12.5 135.2,12.5 L134.3,12.5 C134.2,12.5 134.1,12.5 134.1,12.4 C134.1,12.4 134.1,12.3 134.1,12.2 L134.1,4.1 C134.1,3.9 134.2,3.8 134.3,3.8 L135.2,3.8 C135.3,3.8 135.4,3.8 135.4,3.9 C135.4,3.9 135.4,4 135.4,4.1 L135.4,4.5 L135.4,4.5 C135.5,4.4 135.6,4.3 135.8,4.2 C136,4.1 136.1,4 136.3,3.9 C136.5,3.8 136.7,3.8 136.9,3.7 C137.1,3.6 137.3,3.6 137.5,3.6 C137.9,3.6 138.3,3.7 138.6,3.8 C138.9,4 139.1,4.2 139.3,4.5 C139.5,4.8 139.6,5.1 139.6,5.5 C139.6,6 139.6,6.4 139.6,6.9 Z M138.1,6.9 C138.1,6.5 138.1,6.2 138,5.9 C138,5.6 137.9,5.5 137.8,5.3 C137.7,5.2 137.6,5.1 137.5,5 C137.4,5 137.2,4.9 137.1,4.9 C137,4.9 136.8,4.9 136.7,5 C136.5,5 136.4,5.1 136.2,5.1 C136,5.2 135.9,5.2 135.7,5.3 C135.6,5.4 135.4,5.4 135.3,5.5 L135.3,8.7 C135.6,8.8 135.9,8.8 136.1,8.9 C136.3,8.9 136.6,8.9 136.8,8.9 C137,8.9 137.2,8.9 137.4,8.8 C137.6,8.7 137.7,8.6 137.8,8.5 C137.9,8.4 138,8.1 138,7.8 C138.1,7.7 138.1,7.3 138.1,6.9 Z" id="Shape"></path>
                <path d="M142.1,7.4 C142.1,7.7 142.1,8 142.2,8.2 C142.3,8.4 142.4,8.6 142.5,8.7 C142.6,8.8 142.8,8.9 143,9 C143.2,9.1 143.4,9.1 143.7,9.1 C143.9,9.1 144.2,9.1 144.5,9 C144.8,9 145.1,8.9 145.4,8.9 C145.5,8.9 145.6,8.9 145.7,8.9 C145.8,8.9 145.8,9 145.8,9.1 L145.9,9.5 C145.9,9.6 145.9,9.7 145.9,9.7 C145.9,9.7 145.8,9.8 145.7,9.9 C145.6,10 145.4,10 145.2,10 C145,10 144.8,10.1 144.7,10.1 C144.6,10.1 144.3,10.1 144.1,10.2 C143.9,10.2 143.7,10.2 143.6,10.2 C143,10.2 142.5,10.1 142.1,9.9 C141.7,9.7 141.4,9.5 141.2,9.2 C141,8.9 140.9,8.5 140.8,8.2 C140.7,7.8 140.7,7.4 140.7,7 C140.7,6.7 140.7,6.3 140.8,5.9 C140.9,5.5 141,5.1 141.2,4.8 C141.4,4.5 141.7,4.2 142,3.9 C142.4,3.7 142.9,3.6 143.5,3.6 C144.1,3.6 144.6,3.7 144.9,3.9 C145.3,4.1 145.5,4.3 145.7,4.6 C145.9,4.9 146,5.2 146.1,5.5 C146.2,5.9 146.2,6.2 146.2,6.5 C146.2,6.7 146.2,6.9 146.1,7.1 C146,7.2 145.8,7.3 145.6,7.3 L142.1,7.3 L142.1,7.4 Z M143.4,4.8 C143.2,4.8 143,4.8 142.8,4.9 C142.6,5 142.5,5.1 142.4,5.2 C142.3,5.3 142.2,5.5 142.2,5.7 C142.2,5.9 142.1,6.1 142.1,6.4 L144.7,6.4 C144.7,6.2 144.7,6 144.6,5.8 C144.6,5.6 144.5,5.4 144.4,5.3 C144.3,5.2 144.2,5 144,5 C143.8,5 143.7,4.8 143.4,4.8 Z" id="Shape"></path>
                <path d="M151.4,9.4 C151.1,9.7 150.7,9.9 150.3,10 C149.9,10.2 149.5,10.2 149,10.2 C148.7,10.2 148.4,10.2 148.1,10.1 C147.9,10 147.7,9.9 147.6,9.7 C147.5,9.5 147.4,9.3 147.3,9.1 C147.2,8.9 147.2,8.6 147.2,8.3 C147.2,7.5 147.4,7 147.8,6.6 C148.2,6.2 148.8,6.1 149.6,6.1 L151.3,6.1 L151.3,5.9 C151.3,5.7 151.3,5.5 151.2,5.4 C151.1,5.3 151.1,5.2 151,5.1 C150.9,5 150.8,5 150.6,4.9 C150.4,4.9 150.2,4.8 149.9,4.8 C149.8,4.8 149.7,4.8 149.5,4.8 C149.3,4.8 149.2,4.8 149,4.8 C148.8,4.8 148.7,4.8 148.5,4.8 C148.3,4.8 148.2,4.8 148.1,4.8 C148,4.8 147.9,4.8 147.8,4.8 C147.8,4.8 147.7,4.7 147.7,4.6 L147.6,4.1 C147.6,4 147.6,3.9 147.6,3.9 C147.6,3.8 147.7,3.8 147.9,3.7 C148,3.6 148.2,3.6 148.4,3.6 C148.6,3.6 148.8,3.5 149,3.5 C149.2,3.5 149.4,3.5 149.6,3.4 C149.8,3.4 150,3.4 150.1,3.4 C150.7,3.4 151.1,3.5 151.4,3.6 C151.7,3.7 152,3.9 152.2,4.1 C152.4,4.3 152.5,4.6 152.5,4.8 C152.5,5 152.6,5.4 152.6,5.8 L152.6,8.3 C152.6,8.4 152.6,8.5 152.6,8.6 C152.6,8.7 152.6,8.7 152.7,8.8 C152.7,8.8 152.8,8.9 152.8,8.9 C152.9,8.9 152.9,8.9 153,8.9 C153.1,8.9 153.2,8.9 153.2,9 C153.2,9 153.3,9.1 153.3,9.1 L153.3,9.6 C153.3,9.7 153.2,9.8 153,9.9 C152.9,9.9 152.8,9.9 152.7,9.9 C152.6,9.9 152.5,9.9 152.4,9.9 C152.1,9.9 151.9,9.8 151.7,9.7 C151.6,9.9 151.5,9.7 151.4,9.4 L151.4,9.4 Z M151.3,7.3 L149.7,7.3 C149.4,7.3 149.1,7.4 148.9,7.5 C148.7,7.7 148.6,7.9 148.6,8.4 C148.6,8.7 148.7,8.9 148.8,9 C148.9,9.1 149.1,9.2 149.4,9.2 C149.5,9.2 149.7,9.2 149.9,9.1 C150.1,9.1 150.2,9 150.4,9 C150.6,8.9 150.7,8.9 150.9,8.8 C151.1,8.7 151.2,8.7 151.3,8.6 L151.3,7.3 L151.3,7.3 Z" id="Shape"></path>
                <path d="M159.9,10.1 C159.9,10.1 159.8,10.2 159.7,10.2 L158.8,10.2 C158.6,10.2 158.6,10.1 158.6,10 L158.6,6.3 C158.6,5.9 158.5,5.6 158.4,5.4 C158.3,5.2 158,5 157.7,5 C157.6,5 157.4,5 157.3,5.1 C157.2,5.2 157,5.2 156.8,5.3 C156.6,5.4 156.5,5.4 156.3,5.5 C156.1,5.6 156,5.6 155.9,5.7 L155.9,10 C155.9,10.2 155.8,10.2 155.7,10.2 L154.8,10.2 C154.6,10.2 154.6,10.1 154.6,10 L154.6,4.1 C154.6,3.9 154.7,3.8 154.8,3.8 L155.7,3.8 C155.9,3.8 155.9,3.9 155.9,4.1 L155.9,4.5 C155.9,4.5 155.9,4.5 155.9,4.5 C155.9,4.5 155.9,4.5 155.9,4.5 C156,4.4 156.2,4.3 156.3,4.2 C156.5,4.1 156.6,4 156.8,3.9 C157,3.8 157.2,3.8 157.4,3.7 C157.6,3.7 157.8,3.6 158,3.6 C158.4,3.6 158.8,3.7 159,3.8 C159.3,3.9 159.4,4.1 159.6,4.3 C159.7,4.5 159.8,4.8 159.8,5.1 C159.8,5.4 159.9,5.7 159.9,6 L159.9,9.8 C159.9,10 159.9,10.1 159.9,10.1 Z" id="Shape"></path>
                <path d="M168.3,9 C168.9,9 169.3,8.8 169.6,8.5 C169.9,8.2 170,7.7 170,7 L170,1.8 C170,1.6 170.1,1.5 170.3,1.5 L171.3,1.5 C171.4,1.5 171.5,1.5 171.5,1.6 C171.5,1.6 171.5,1.7 171.5,1.8 L171.5,7 C171.5,7.3 171.5,7.5 171.5,7.8 C171.5,8.1 171.4,8.3 171.3,8.6 C171.2,8.9 171,9.2 170.8,9.4 C170.6,9.6 170.4,9.8 170.1,9.9 C169.8,10 169.6,10.1 169.3,10.2 C169,10.3 168.7,10.3 168.4,10.3 C167,10.3 166.1,9.8 165.6,8.9 C165.5,8.6 165.4,8.4 165.3,8 C165.2,7.6 165.2,7.4 165.2,7 L165.2,1.8 C165.2,1.6 165.3,1.5 165.4,1.5 L166.4,1.5 C166.6,1.5 166.6,1.6 166.6,1.8 L166.6,7 C166.6,7.6 166.7,8.1 167,8.5 C167.3,8.8 167.7,9 168.3,9 Z" id="Shape"></path>
                <path d="M178.5,10.1 C178.5,10.1 178.4,10.2 178.3,10.2 L177.4,10.2 C177.2,10.2 177.2,10.1 177.2,10 L177.2,6.3 C177.2,5.9 177.1,5.6 177,5.4 C176.9,5.2 176.6,5 176.3,5 C176.2,5 176,5 175.9,5.1 C175.8,5.2 175.6,5.2 175.4,5.3 C175.2,5.4 175.1,5.4 174.9,5.5 C174.7,5.6 174.6,5.6 174.5,5.7 L174.5,10 C174.5,10.2 174.4,10.2 174.3,10.2 L173.4,10.2 C173.2,10.2 173.2,10.1 173.2,10 L173.2,4.1 C173.2,3.9 173.3,3.8 173.4,3.8 L174.3,3.8 C174.5,3.8 174.5,3.9 174.5,4.1 L174.5,4.5 C174.5,4.5 174.5,4.5 174.5,4.5 C174.5,4.5 174.5,4.5 174.5,4.5 C174.6,4.4 174.8,4.3 174.9,4.2 C175.1,4.1 175.2,4 175.4,3.9 C175.6,3.8 175.8,3.8 176,3.7 C176.2,3.7 176.4,3.6 176.6,3.6 C177,3.6 177.4,3.7 177.6,3.8 C177.9,3.9 178,4.1 178.2,4.3 C178.3,4.5 178.4,4.8 178.4,5.1 C178.4,5.4 178.5,5.7 178.5,6 L178.5,9.8 C178.6,10 178.6,10.1 178.5,10.1 Z" id="Shape"></path>
                <path d="M181.6,2.1 C181.6,2.2 181.6,2.3 181.6,2.4 C181.6,2.5 181.5,2.6 181.5,2.6 C181.5,2.6 181.4,2.7 181.3,2.8 C181.2,2.8 181.1,2.9 180.9,2.9 C180.7,2.9 180.6,2.9 180.5,2.8 C180.4,2.8 180.3,2.7 180.3,2.6 C180.2,2.5 180.2,2.5 180.2,2.4 C180.2,2.3 180.2,2.2 180.2,2.1 C180.2,1.9 180.2,1.7 180.3,1.6 C180.4,1.5 180.6,1.4 180.9,1.4 C181.2,1.4 181.4,1.5 181.5,1.6 C181.6,1.7 181.6,1.9 181.6,2.1 Z M181.5,9.9 C181.5,10 181.5,10 181.5,10.1 C181.5,10.1 181.4,10.2 181.3,10.2 L180.4,10.2 C180.2,10.2 180.1,10.1 180.1,10 L180.1,4 C180.1,3.8 180.2,3.8 180.4,3.8 L181.3,3.8 C181.4,3.8 181.5,3.8 181.5,3.9 C181.5,3.9 181.5,4 181.5,4.1 L181.5,9.9 Z" id="Shape"></path>
                <path d="M188.7,6.9 C188.7,7.3 188.7,7.7 188.6,8.1 C188.6,8.5 188.4,8.9 188.2,9.2 C188,9.5 187.7,9.8 187.3,10 C186.9,10.2 186.4,10.3 185.7,10.3 C185.1,10.3 184.5,10.2 184.2,10 C183.8,9.8 183.5,9.5 183.4,9.2 C183.2,8.9 183.1,8.5 183.1,8.1 C183.1,7.7 183,7.3 183,6.9 C183,6.6 183,6.3 183.1,5.9 C183.2,5.5 183.3,5.2 183.5,4.9 C183.7,4.6 184,4.3 184.3,4.1 C184.6,3.9 185.2,3.8 185.8,3.8 C186.4,3.8 186.9,3.9 187.3,4.1 C187.7,4.3 188,4.5 188.2,4.8 C188.4,5.1 188.5,5.5 188.6,5.8 C188.6,6.1 188.7,6.5 188.7,6.9 Z M187.2,7 C187.2,6.7 187.2,6.4 187.1,6.1 C187.1,5.8 187,5.6 186.9,5.5 C186.8,5.3 186.7,5.2 186.5,5.1 C186.3,5 186.1,5 185.8,5 C185.5,5 185.3,5 185.1,5.1 C184.9,5.2 184.8,5.3 184.7,5.5 C184.6,5.7 184.5,5.9 184.5,6.1 C184.5,6.4 184.4,6.7 184.4,7 C184.4,7.3 184.4,7.6 184.5,7.9 C184.5,8.2 184.6,8.4 184.7,8.5 C184.8,8.7 184.9,8.8 185.1,8.9 C185.3,9 185.5,9 185.8,9 C186.1,9 186.3,9 186.5,8.9 C186.7,8.8 186.8,8.7 186.9,8.5 C187,8.3 187.1,8.1 187.1,7.9 C187.2,7.6 187.2,7.3 187.2,7 Z" id="Shape"></path>
                <path d="M195.4,10.1 C195.4,10.1 195.3,10.2 195.2,10.2 L194.3,10.2 C194.1,10.2 194.1,10.1 194.1,10 L194.1,6.3 C194.1,5.9 194,5.6 193.9,5.4 C193.8,5.2 193.5,5 193.2,5 C193.1,5 192.9,5 192.8,5.1 C192.7,5.2 192.5,5.2 192.3,5.3 C192.1,5.4 192,5.4 191.8,5.5 C191.6,5.6 191.5,5.6 191.4,5.7 L191.4,10 C191.4,10.2 191.3,10.2 191.2,10.2 L190.3,10.2 C190.1,10.2 190.1,10.1 190.1,10 L190.1,4.1 C190.1,3.9 190.2,3.8 190.3,3.8 L191.2,3.8 C191.4,3.8 191.4,3.9 191.4,4.1 L191.4,4.5 C191.4,4.5 191.4,4.5 191.4,4.5 C191.4,4.5 191.4,4.5 191.4,4.5 C191.5,4.4 191.7,4.3 191.8,4.2 C192,4.1 192.1,4 192.3,3.9 C192.5,3.8 192.7,3.8 192.9,3.7 C193.1,3.7 193.3,3.6 193.5,3.6 C193.9,3.6 194.3,3.7 194.5,3.8 C194.8,3.9 194.9,4.1 195.1,4.3 C195.2,4.5 195.3,4.8 195.3,5.1 C195.3,5.4 195.4,5.7 195.4,6 L195.4,9.8 C195.5,10 195.4,10.1 195.4,10.1 Z" id="Shape"></path>
            </g>
            <g id="Group" transform="translate(48.000000, 15.000000)" stroke="#FFFFFF" stroke-width="0.5">
                <path d="M0.6,0.3 L0.8,0.3" id="Shape"></path>
                <path d="M1.3,0.3 L3.1,0.3" id="Shape" stroke-dasharray="0.5008,0.5008,0.5008,0.5008"></path>
                <path d="M3.3,0.3 L198.4,0.3" id="Shape" stroke-dasharray="0.5008,0.5008,0.5008,0.5008,0.5008,0.5008"></path>
                <path d="M198.7,0.3 L198.9,0.3" id="Shape"></path>
            </g>
            <g id="Group" transform="translate(49.000000, 18.000000)" fill-rule="nonzero" fill="#FFFFFF">
                <path d="M3.3,0.6 C3.4,0.6 3.6,0.6 3.7,0.6 C3.9,0.6 4.1,0.6 4.3,0.6 C4.5,0.6 4.7,0.7 4.9,0.7 C5.1,0.7 5.3,0.8 5.4,0.9 C5.5,0.9 5.5,1 5.6,1 C5.7,1 5.6,1.1 5.6,1.1 L5.5,1.4 C5.5,1.4 5.5,1.5 5.4,1.5 C5.4,1.5 5.3,1.5 5.2,1.5 C4.9,1.5 4.6,1.4 4.3,1.4 C4,1.4 3.6,1.3 3.2,1.3 C2.7,1.3 2.4,1.4 2.1,1.6 C1.8,1.8 1.6,2 1.5,2.3 C1.4,2.6 1.3,2.9 1.2,3.3 C1.2,3.7 1.1,4.1 1.1,4.6 C1.1,5 1.1,5.4 1.2,5.8 C1.2,6.2 1.3,6.5 1.5,6.8 C1.7,7.1 1.9,7.3 2.1,7.5 C2.3,7.7 2.7,7.8 3.2,7.8 C3.6,7.8 3.9,7.8 4.3,7.7 C4.6,7.7 4.9,7.6 5.2,7.6 C5.3,7.6 5.3,7.6 5.4,7.6 C5.4,7.6 5.4,7.7 5.5,7.7 L5.6,8 C5.6,8.1 5.6,8.1 5.6,8.2 C5.6,8.3 5.5,8.3 5.5,8.3 C5.4,8.4 5.2,8.4 5,8.5 C4.8,8.5 4.6,8.6 4.4,8.6 C4.2,8.6 4,8.6 3.8,8.7 C3.6,8.7 3.5,8.7 3.3,8.7 C2.7,8.7 2.2,8.6 1.8,8.4 C1.4,8.2 1.1,7.9 0.9,7.5 C0.7,7.1 0.5,6.7 0.4,6.2 C0.3,5.7 0.3,5.2 0.3,4.7 C0.3,4.2 0.3,3.7 0.4,3.2 C0.5,2.7 0.6,2.3 0.8,1.9 C1,1.5 1.3,1.2 1.7,1 C2.1,0.7 2.6,0.6 3.3,0.6 Z" id="Shape"></path>
                <path d="M11.4,5.6 C11.4,6 11.4,6.3 11.3,6.7 C11.2,7.1 11.2,7.4 11,7.7 C10.8,8 10.6,8.3 10.2,8.4 C9.9,8.6 9.4,8.7 8.8,8.7 C8.2,8.7 7.8,8.6 7.4,8.4 C7.1,8.2 6.8,8 6.7,7.7 C6.5,7.4 6.4,7.1 6.4,6.7 C6.4,6.3 6.3,6 6.3,5.6 C6.3,5.3 6.3,5 6.4,4.7 C6.4,4.4 6.6,4 6.7,3.7 C6.9,3.4 7.1,3.2 7.4,3 C7.7,2.8 8.2,2.7 8.7,2.7 C9.3,2.7 9.7,2.8 10,3 C10.3,3.2 10.6,3.4 10.8,3.7 C11,4 11.1,4.3 11.1,4.6 C11.3,4.9 11.4,5.2 11.4,5.6 Z M10.4,5.7 C10.4,5.3 10.4,5 10.3,4.7 C10.3,4.4 10.2,4.2 10.1,4 C10,3.8 9.8,3.7 9.6,3.6 C9.4,3.5 9.1,3.5 8.8,3.5 C8.5,3.5 8.2,3.5 8,3.6 C7.8,3.7 7.7,3.8 7.5,4 C7.4,4.2 7.3,4.4 7.3,4.7 C7.3,5 7.2,5.3 7.2,5.7 C7.2,6.1 7.2,6.4 7.3,6.7 C7.4,7 7.4,7.2 7.5,7.4 C7.6,7.6 7.8,7.7 8,7.8 C8.2,7.9 8.4,7.9 8.8,7.9 C9.1,7.9 9.4,7.9 9.6,7.8 C9.8,7.7 10,7.6 10.1,7.4 C10.2,7.2 10.3,7 10.3,6.7 C10.4,6.4 10.4,6.1 10.4,5.7 Z" id="Shape"></path>
                <path d="M17.1,8.6 L16.6,8.6 C16.5,8.6 16.4,8.5 16.4,8.4 L16.4,4.8 C16.4,4.5 16.4,4.3 16.4,4.1 C16.4,3.9 16.3,3.8 16.2,3.7 C16.1,3.6 16,3.5 15.9,3.5 C15.8,3.5 15.6,3.4 15.4,3.4 C15.3,3.4 15.1,3.4 14.9,3.5 C14.7,3.6 14.5,3.6 14.3,3.7 C14.1,3.8 14,3.9 13.8,4 C13.6,4.1 13.5,4.1 13.4,4.2 L13.4,8.5 C13.4,8.6 13.3,8.7 13.2,8.7 L12.7,8.7 C12.6,8.7 12.5,8.6 12.5,8.5 L12.5,3 C12.5,2.9 12.6,2.8 12.7,2.8 L13.2,2.8 C13.3,2.8 13.3,2.8 13.4,2.8 C13.5,2.8 13.5,2.9 13.5,3 L13.5,3.4 L13.5,3.4 C13.6,3.3 13.7,3.3 13.9,3.2 C14.1,3.1 14.2,3 14.4,3 C14.6,2.9 14.8,2.9 15,2.8 C15.2,2.7 15.4,2.7 15.6,2.7 C16,2.7 16.3,2.8 16.5,2.9 C16.7,3 16.9,3.2 17,3.4 C17.1,3.6 17.2,3.8 17.2,4.1 C17.2,4.4 17.3,4.7 17.3,5 L17.3,8.5 C17.3,8.6 17.3,8.6 17.1,8.6 Z" id="Shape"></path>
                <path d="M23.2,8.6 L22.7,8.6 C22.6,8.6 22.5,8.5 22.5,8.4 L22.5,4.8 C22.5,4.5 22.5,4.3 22.5,4.1 C22.5,3.9 22.4,3.8 22.3,3.7 C22.2,3.6 22.1,3.5 22,3.5 C21.9,3.5 21.7,3.4 21.5,3.4 C21.4,3.4 21.2,3.4 21,3.5 C20.8,3.6 20.6,3.6 20.4,3.7 C20.2,3.8 20,3.8 19.9,3.9 C19.7,4 19.6,4 19.5,4.1 L19.5,8.4 C19.5,8.5 19.4,8.6 19.3,8.6 L18.8,8.6 C18.7,8.6 18.6,8.5 18.6,8.4 L18.6,3 C18.6,2.9 18.7,2.8 18.8,2.8 L19.3,2.8 C19.4,2.8 19.4,2.8 19.5,2.8 C19.6,2.8 19.6,2.9 19.6,3 L19.6,3.4 L19.6,3.4 C19.7,3.3 19.8,3.3 20,3.2 C20.2,3.1 20.3,3 20.5,3 C20.7,2.9 20.9,2.9 21.1,2.8 C21.3,2.7 21.5,2.7 21.7,2.7 C22.1,2.7 22.4,2.8 22.6,2.9 C22.8,3 23,3.2 23.1,3.4 C23.2,3.6 23.3,3.8 23.3,4.1 C23.3,4.4 23.4,4.7 23.4,5 L23.4,8.5 C23.4,8.6 23.3,8.6 23.2,8.6 Z" id="Shape"></path>
                <path d="M29.4,5.3 C29.4,5.5 29.4,5.7 29.3,5.8 C29.2,5.9 29.1,6 28.9,6 L25.5,6 C25.5,6.4 25.5,6.7 25.6,6.9 C25.7,7.1 25.7,7.3 25.9,7.5 C26,7.6 26.2,7.8 26.4,7.8 C26.6,7.8 26.8,7.9 27.1,7.9 C27.2,7.9 27.4,7.9 27.5,7.9 C27.7,7.9 27.8,7.9 28,7.9 C28.2,7.9 28.3,7.9 28.4,7.9 C28.5,7.9 28.7,7.9 28.8,7.9 C28.9,7.9 28.9,7.9 29,7.9 C29,7.9 29.1,8 29.1,8 L29.1,8.3 C29.1,8.4 29.1,8.5 29,8.5 C28.9,8.5 28.8,8.6 28.6,8.6 C28.4,8.6 28.3,8.7 28.1,8.7 C27.9,8.7 27.7,8.7 27.6,8.8 C27.4,8.8 27.3,8.8 27.1,8.8 C26.5,8.8 26.1,8.7 25.8,8.5 C25.5,8.3 25.2,8.1 25.1,7.8 C25,7.5 24.8,7.2 24.8,6.8 C24.8,6.4 24.7,6.1 24.7,5.7 C24.7,5.4 24.7,5.1 24.8,4.7 C24.8,4.3 25,4 25.1,3.7 C25.3,3.4 25.5,3.1 25.8,2.9 C26.1,2.7 26.6,2.6 27.1,2.6 C27.6,2.6 28,2.7 28.3,2.8 C28.6,3 28.9,3.2 29,3.4 C29.2,3.6 29.3,3.9 29.3,4.3 C29.3,4.7 29.4,5 29.4,5.3 Z M28.5,5.2 C28.5,5 28.5,4.8 28.4,4.6 C28.4,4.4 28.3,4.2 28.2,4 C28.1,3.8 27.9,3.7 27.8,3.6 C27.6,3.5 27.4,3.4 27,3.4 C26.7,3.4 26.5,3.4 26.3,3.5 C26.1,3.6 26,3.7 25.9,3.9 C25.8,4.1 25.7,4.2 25.6,4.5 C25.5,4.8 25.5,5 25.5,5.2 L28.5,5.2 Z" id="Shape"></path>
                <path d="M34.7,8.4 C34.5,8.5 34.2,8.6 33.9,8.6 C33.6,8.6 33.2,8.7 32.9,8.7 C32.4,8.7 31.9,8.6 31.6,8.5 C31.3,8.3 31,8.1 30.9,7.8 C30.7,7.5 30.6,7.2 30.6,6.8 C30.5,6.4 30.5,6 30.5,5.6 C30.5,5.2 30.5,4.8 30.6,4.5 C30.7,4.1 30.8,3.8 30.9,3.5 C31.1,3.2 31.3,3 31.6,2.8 C31.9,2.6 32.3,2.5 32.9,2.5 C33,2.5 33.2,2.5 33.3,2.5 C33.5,2.5 33.6,2.5 33.8,2.5 C34,2.5 34.1,2.5 34.3,2.6 C34.5,2.6 34.6,2.7 34.7,2.7 C34.8,2.7 34.8,2.8 34.8,2.8 C34.8,2.8 34.8,2.9 34.8,2.9 L34.8,3.2 C34.8,3.3 34.7,3.3 34.7,3.3 C34.6,3.3 34.6,3.3 34.5,3.3 C34.3,3.3 34,3.3 33.7,3.2 C33.4,3.2 33.1,3.2 32.9,3.2 C32.6,3.2 32.4,3.2 32.2,3.3 C32,3.4 31.9,3.5 31.8,3.7 C31.7,3.9 31.6,4.1 31.6,4.4 C31.6,4.7 31.5,5 31.5,5.4 C31.5,5.8 31.5,6.2 31.6,6.5 C31.6,6.8 31.7,7 31.8,7.2 C31.9,7.4 32.1,7.5 32.2,7.6 C32.3,7.7 32.6,7.7 32.9,7.7 C33,7.7 33.1,7.7 33.3,7.7 C33.5,7.7 33.6,7.7 33.7,7.7 C33.8,7.7 34,7.7 34.1,7.7 C34.3,7.7 34.4,7.7 34.5,7.7 C34.6,7.7 34.6,7.7 34.7,7.7 C34.8,7.7 34.8,7.8 34.8,7.8 L34.8,8.1 C34.8,8.3 34.8,8.4 34.7,8.4 Z" id="Shape"></path>
                <path d="M38.9,8.3 C38.9,8.4 38.9,8.5 38.8,8.5 C38.7,8.5 38.6,8.6 38.5,8.6 C38.4,8.6 38.3,8.7 38.1,8.7 C38,8.7 37.8,8.7 37.7,8.7 C37.6,8.7 37.5,8.7 37.4,8.7 C37.1,8.7 36.9,8.7 36.8,8.6 C36.6,8.5 36.5,8.5 36.4,8.3 C36.3,8.1 36.2,8.1 36.2,7.9 C36.2,7.7 36.1,7.6 36.1,7.4 L36.1,3.5 L35.4,3.5 C35.3,3.5 35.2,3.4 35.2,3.3 L35.2,3 C35.2,2.9 35.3,2.8 35.4,2.8 L36.1,2.8 L36.1,1.5 C36.1,1.4 36.1,1.4 36.2,1.3 C36.2,1.3 36.3,1.2 36.4,1.2 L36.9,1.1 C37,1.1 37.1,1.1 37.1,1.3 L37.1,2.8 L38.4,2.8 C38.5,2.8 38.5,2.8 38.6,2.9 C38.6,2.9 38.6,3 38.6,3 L38.6,3.3 C38.6,3.4 38.6,3.4 38.6,3.5 C38.6,3.5 38.5,3.5 38.4,3.5 L37.1,3.5 L37.1,7.1 C37.1,7.2 37.1,7.4 37.1,7.4 C37.1,7.4 37.2,7.6 37.2,7.6 C37.3,7.7 37.3,7.7 37.5,7.7 C37.6,7.7 37.8,7.7 37.9,7.7 C38,7.7 38.1,7.7 38.2,7.7 C38.4,7.7 38.5,7.7 38.6,7.7 C38.7,7.7 38.8,7.7 38.8,7.7 C38.8,7.7 38.9,7.8 38.9,7.8 L38.9,8.3 Z" id="Shape"></path>
                <path d="M40.7,1.2 C40.7,1.4 40.7,1.5 40.6,1.6 C40.5,1.7 40.4,1.8 40.2,1.8 C40,1.8 39.8,1.7 39.8,1.6 C39.7,1.5 39.7,1.4 39.7,1.2 C39.7,1 39.7,0.9 39.8,0.8 C39.9,0.7 40,0.7 40.2,0.7 C40.4,0.7 40.6,0.7 40.6,0.8 C40.7,0.9 40.7,1.1 40.7,1.2 Z M40.7,8.4 C40.7,8.5 40.6,8.6 40.5,8.6 L40,8.6 C39.9,8.6 39.8,8.5 39.8,8.4 L39.8,3 C39.8,2.9 39.8,2.9 39.9,2.8 C39.9,2.8 40,2.8 40.1,2.8 L40.6,2.8 C40.7,2.8 40.8,2.9 40.8,3 L40.8,8.4 L40.7,8.4 Z" id="Shape"></path>
                <path d="M46.8,8.6 L46.3,8.6 C46.2,8.6 46.1,8.5 46.1,8.4 L46.1,4.8 C46.1,4.5 46.1,4.3 46.1,4.1 C46.1,3.9 46,3.8 45.9,3.7 C45.8,3.6 45.7,3.5 45.6,3.5 C45.5,3.5 45.3,3.4 45.1,3.4 C45,3.4 44.8,3.4 44.6,3.5 C44.4,3.6 44.2,3.6 44,3.7 C43.8,3.8 43.6,3.8 43.5,3.9 C43.3,4 43.2,4 43.1,4.1 L43.1,8.4 C43.1,8.5 43,8.6 42.9,8.6 L42.4,8.6 C42.3,8.6 42.2,8.5 42.2,8.4 L42.2,3 C42.2,2.9 42.3,2.8 42.4,2.8 L42.9,2.8 C43,2.8 43,2.8 43.1,2.8 C43.2,2.8 43.2,2.9 43.2,3 L43.2,3.4 L43.2,3.4 C43.3,3.3 43.4,3.3 43.6,3.2 C43.8,3.1 43.9,3 44.1,3 C44.3,2.9 44.5,2.9 44.7,2.8 C44.9,2.7 45.1,2.7 45.3,2.7 C45.7,2.7 46,2.8 46.2,2.9 C46.4,3 46.6,3.2 46.7,3.4 C46.8,3.6 46.9,3.8 46.9,4.1 C46.9,4.4 47,4.7 47,5 L47,8.5 C47,8.6 46.9,8.6 46.8,8.6 Z" id="Shape"></path>
                <path d="M50.7,2.7 C50.9,2.7 51.1,2.7 51.3,2.7 C51.5,2.7 51.7,2.7 51.9,2.8 C52.1,2.8 52.3,2.9 52.5,2.9 C52.7,2.9 52.8,3 53,3 C53.1,3 53.2,3.1 53.3,3.2 C53.3,3.3 53.3,3.4 53.3,3.5 L53.3,8.7 C53.3,9 53.3,9.3 53.2,9.6 C53.2,9.9 53,10.1 52.9,10.3 C52.7,10.5 52.5,10.6 52.2,10.8 C51.9,10.9 51.5,11 51,11 C50.8,11 50.7,11 50.5,11 C50.3,11 50.1,11 50,11 C49.8,11 49.7,11 49.5,10.9 C49.3,10.9 49.2,10.8 49.1,10.8 C49,10.8 49,10.7 49,10.7 C49,10.7 49,10.6 49,10.6 L49,10.3 C49,10.2 49,10.2 49.1,10.2 C49.1,10.2 49.2,10.2 49.3,10.2 C49.6,10.2 49.8,10.3 50.2,10.3 C50.5,10.3 50.8,10.3 51,10.3 C51.3,10.3 51.5,10.3 51.7,10.2 C51.9,10.2 52,10.1 52.1,10 C52.2,9.9 52.3,9.8 52.3,9.6 C52.3,9.4 52.4,9.3 52.4,9.1 L52.4,8.6 C52,8.7 51.7,8.8 51.4,8.9 C51.1,9 50.9,9 50.7,9 C50.2,9 49.9,8.9 49.6,8.8 C49.3,8.7 49.1,8.5 48.9,8.2 C48.7,7.9 48.6,7.6 48.5,7.3 C48.4,6.9 48.4,6.5 48.4,6.1 C48.4,5.6 48.4,5.2 48.5,4.8 C48.6,4.4 48.7,4.1 48.9,3.8 C49.1,3.5 49.3,3.3 49.7,3.2 C49.8,2.7 50.2,2.7 50.7,2.7 Z M49.2,5.6 C49.2,6 49.2,6.4 49.3,6.7 C49.4,7 49.4,7.2 49.5,7.4 C49.6,7.6 49.7,7.7 49.9,7.8 C50.1,7.9 50.3,7.9 50.5,7.9 C50.7,7.9 51,7.9 51.3,7.8 C51.6,7.7 51.9,7.7 52.2,7.6 L52.2,3.6 C52,3.6 51.7,3.5 51.4,3.5 C51.1,3.5 50.9,3.5 50.6,3.5 C50.4,3.5 50.2,3.5 50,3.6 C49.8,3.7 49.6,3.7 49.5,3.9 C49.4,4 49.3,4.3 49.2,4.5 C49.1,4.7 49.2,5.2 49.2,5.6 Z" id="Shape"></path>
                <path d="M62.5,8.6 C62.5,8.6 62.4,8.6 62.3,8.6 L58.1,8.6 C58,8.6 57.9,8.5 57.9,8.4 L57.9,0.8 C57.9,0.7 58,0.6 58.1,0.6 L62.2,0.6 C62.3,0.6 62.4,0.7 62.4,0.8 L62.4,1.3 C62.4,1.4 62.3,1.5 62.2,1.5 L58.8,1.5 L58.8,4 L61.9,4 C62,4 62.1,4.1 62.1,4.2 L62.1,4.7 C62.1,4.8 62,4.9 61.9,4.9 L58.8,4.9 L58.8,7.8 L62.3,7.8 C62.4,7.8 62.5,7.9 62.5,8 L62.5,8.5 C62.5,8.5 62.5,8.6 62.5,8.6 Z" id="Shape"></path>
                <path d="M68.3,8.6 L67.8,8.6 C67.7,8.6 67.6,8.5 67.6,8.4 L67.6,8 L67.6,8 C67.5,8.1 67.4,8.1 67.2,8.2 C67,8.3 66.9,8.4 66.7,8.4 C66.5,8.5 66.3,8.5 66.1,8.6 C65.9,8.7 65.7,8.7 65.5,8.7 C65.1,8.7 64.8,8.6 64.6,8.5 C64.4,8.4 64.2,8.2 64.1,8 C64,7.8 63.9,7.6 63.9,7.3 C63.9,7 63.8,6.7 63.8,6.4 L63.8,3 C63.8,2.9 63.9,2.8 64,2.8 L64.5,2.8 C64.6,2.8 64.7,2.9 64.7,3 L64.7,6.6 C64.7,6.9 64.7,7.1 64.7,7.3 C64.7,7.5 64.8,7.6 64.9,7.7 C65,7.8 65.1,7.9 65.2,7.9 C65.3,7.9 65.5,8 65.7,8 C65.8,8 66,8 66.2,7.9 C66.4,7.8 66.6,7.8 66.8,7.7 C67,7.6 67.2,7.6 67.3,7.5 C67.5,7.4 67.6,7.4 67.7,7.3 L67.7,3 C67.7,2.9 67.8,2.8 67.9,2.8 L68.4,2.8 C68.5,2.8 68.6,2.9 68.6,3 L68.6,8.4 C68.5,8.6 68.5,8.6 68.3,8.6 Z" id="Shape"></path>
                <path d="M73,3.6 C72.8,3.6 72.7,3.7 72.5,3.7 C72.3,3.8 72.1,3.8 71.9,3.9 C71.7,4 71.6,4 71.4,4.1 C71.2,4.2 71.1,4.2 71.1,4.2 L71.1,8.4 C71.1,8.5 71,8.6 70.9,8.6 L70.4,8.6 C70.3,8.6 70.2,8.5 70.2,8.4 L70.2,3 C70.2,2.9 70.3,2.8 70.4,2.8 L70.9,2.8 C71,2.8 71.1,2.9 71.1,3 L71.1,3.5 L71.1,3.5 C71.2,3.4 71.3,3.4 71.4,3.3 C71.5,3.2 71.7,3.1 71.9,3.1 C72.1,3 72.2,3 72.4,2.9 C72.6,2.8 72.7,2.8 72.9,2.8 C73,2.8 73,2.8 73,2.8 C73,2.8 73,2.9 73.1,2.9 L73.1,3.4 C73.1,3.5 73.1,3.6 73,3.6 Z" id="Shape"></path>
                <path d="M78.6,5.6 C78.6,6 78.6,6.3 78.5,6.7 C78.4,7.1 78.4,7.4 78.2,7.7 C78,8 77.8,8.3 77.4,8.4 C77.1,8.6 76.6,8.7 76,8.7 C75.4,8.7 75,8.6 74.6,8.4 C74.3,8.2 74,8 73.9,7.7 C73.7,7.4 73.6,7.1 73.6,6.7 C73.6,6.3 73.5,6 73.5,5.6 C73.5,5.3 73.5,5 73.6,4.7 C73.6,4.4 73.8,4 73.9,3.7 C74.1,3.4 74.3,3.2 74.6,3 C74.9,2.8 75.4,2.7 75.9,2.7 C76.5,2.7 76.9,2.8 77.2,3 C77.5,3.2 77.8,3.4 78,3.7 C78.2,4 78.3,4.3 78.3,4.6 C78.6,4.9 78.6,5.2 78.6,5.6 Z M77.7,5.7 C77.7,5.3 77.7,5 77.6,4.7 C77.6,4.4 77.5,4.2 77.4,4 C77.3,3.8 77.1,3.7 76.9,3.6 C76.7,3.5 76.4,3.5 76.1,3.5 C75.8,3.5 75.5,3.5 75.3,3.6 C75.1,3.7 75,3.8 74.8,4 C74.7,4.2 74.6,4.4 74.6,4.7 C74.6,5 74.5,5.3 74.5,5.7 C74.5,6.1 74.5,6.4 74.6,6.7 C74.7,7 74.7,7.2 74.8,7.4 C74.9,7.6 75.1,7.7 75.3,7.8 C75.5,7.9 75.7,7.9 76.1,7.9 C76.4,7.9 76.7,7.9 76.9,7.8 C77.1,7.7 77.3,7.6 77.4,7.4 C77.5,7.2 77.6,7 77.6,6.7 C77.7,6.4 77.7,6.1 77.7,5.7 Z" id="Shape"></path>
                <path d="M84.8,5.7 C84.8,6.2 84.8,6.6 84.7,7 C84.6,7.4 84.5,7.7 84.3,8 C84.1,8.3 83.9,8.5 83.6,8.6 C83.3,8.7 82.9,8.8 82.5,8.8 C82.3,8.8 82,8.8 81.7,8.7 C81.4,8.7 81.1,8.6 80.8,8.4 L80.8,8.4 L80.8,10.5 C80.8,10.6 80.8,10.6 80.8,10.7 C80.8,10.7 80.7,10.8 80.6,10.8 L80,10.8 C79.9,10.8 79.9,10.8 79.8,10.8 C79.8,10.8 79.8,10.7 79.8,10.6 L79.8,3 C79.8,2.9 79.9,2.8 80,2.8 L80.5,2.8 C80.6,2.8 80.7,2.9 80.7,3 L80.7,3.4 L80.7,3.4 C80.8,3.3 80.9,3.3 81.1,3.2 C81.3,3.1 81.4,3 81.6,3 C81.8,3 82,2.9 82.2,2.8 C82.4,2.7 82.6,2.7 82.8,2.7 C83.2,2.7 83.5,2.8 83.7,2.9 C84,3 84.2,3.2 84.3,3.5 C84.4,3.8 84.6,4.1 84.6,4.4 C84.6,4.7 84.8,5.2 84.8,5.7 Z M83.8,5.6 C83.8,5.1 83.8,4.8 83.7,4.5 C83.7,4.2 83.6,4 83.5,3.9 C83.4,3.7 83.3,3.6 83.2,3.6 C83.1,3.6 82.9,3.5 82.7,3.5 C82.6,3.5 82.4,3.5 82.2,3.6 C82,3.6 81.8,3.7 81.6,3.8 C81.4,3.9 81.2,3.9 81.1,4 C80.9,4.1 80.8,4.1 80.7,4.2 L80.7,7.7 C81,7.8 81.3,7.9 81.6,7.9 C81.9,7.9 82.1,8 82.4,8 C82.7,8 82.9,8 83,7.9 C83.2,7.8 83.3,7.7 83.4,7.5 C83.5,7.3 83.6,7.1 83.6,6.8 C83.6,6.5 83.8,6 83.8,5.6 Z" id="Shape"></path>
                <path d="M90.5,5.3 C90.5,5.5 90.5,5.7 90.4,5.8 C90.3,5.9 90.2,6 90,6 L86.6,6 C86.6,6.4 86.6,6.7 86.7,6.9 C86.8,7.1 86.8,7.3 87,7.5 C87.1,7.6 87.3,7.8 87.5,7.8 C87.7,7.8 87.9,7.9 88.2,7.9 C88.3,7.9 88.5,7.9 88.6,7.9 C88.8,7.9 88.9,7.9 89.1,7.9 C89.3,7.9 89.4,7.9 89.5,7.9 C89.6,7.9 89.8,7.9 89.9,7.9 C90,7.9 90,7.9 90.1,7.9 C90.1,7.9 90.2,8 90.2,8 L90.2,8.3 C90.2,8.4 90.2,8.5 90.1,8.5 C90,8.5 89.9,8.6 89.7,8.6 C89.5,8.6 89.4,8.7 89.2,8.7 C89,8.7 88.8,8.7 88.7,8.8 C88.5,8.8 88.4,8.8 88.2,8.8 C87.6,8.8 87.2,8.7 86.9,8.5 C86.6,8.3 86.3,8.1 86.2,7.8 C86.1,7.5 85.9,7.2 85.9,6.8 C85.9,6.4 85.8,6.1 85.8,5.7 C85.8,5.4 85.8,5.1 85.9,4.7 C85.9,4.3 86.1,4 86.2,3.7 C86.4,3.4 86.6,3.1 86.9,2.9 C87.2,2.7 87.7,2.6 88.2,2.6 C88.7,2.6 89.1,2.7 89.4,2.8 C89.7,3 90,3.2 90.1,3.4 C90.3,3.6 90.4,3.9 90.4,4.3 C90.4,4.7 90.5,5 90.5,5.3 Z M89.6,5.2 C89.6,5 89.6,4.8 89.5,4.6 C89.5,4.4 89.4,4.2 89.3,4 C89.2,3.8 89,3.7 88.9,3.6 C88.7,3.5 88.5,3.4 88.1,3.4 C87.8,3.4 87.6,3.4 87.4,3.5 C87.2,3.6 87.1,3.7 87,3.9 C86.9,4.1 86.8,4.2 86.7,4.5 C86.6,4.8 86.6,5 86.6,5.2 L89.6,5.2 Z" id="Shape"></path>
                <path d="M95.4,0.7 L99.5,0.7 C99.6,0.7 99.7,0.8 99.7,0.9 L99.7,1.4 C99.7,1.5 99.6,1.6 99.5,1.6 L96.2,1.6 L96.2,4.1 L99.2,4.1 C99.3,4.1 99.4,4.2 99.4,4.3 L99.4,4.8 C99.4,4.9 99.3,5 99.2,5 L96.3,5 L96.3,8.5 C96.3,8.6 96.2,8.7 96.1,8.7 L95.6,8.7 C95.5,8.7 95.4,8.6 95.4,8.5 L95.4,0.9 C95.2,0.7 95.2,0.7 95.4,0.7 Z" id="Shape"></path>
                <path d="M104,8 C103.7,8.2 103.4,8.3 103,8.5 C102.6,8.7 102.2,8.7 101.7,8.7 C101.1,8.7 100.7,8.6 100.5,8.3 C100.3,8 100.1,7.6 100.1,7.1 C100.1,6.4 100.3,5.9 100.6,5.6 C100.9,5.3 101.5,5.1 102.3,5.1 L104,5.1 L104,4.7 C104,4.3 103.9,4 103.7,3.8 C103.5,3.6 103.1,3.5 102.6,3.5 C102.5,3.5 102.4,3.5 102.2,3.5 C102.1,3.5 101.9,3.5 101.8,3.5 C101.7,3.5 101.5,3.5 101.3,3.5 C101.1,3.5 101,3.5 100.9,3.5 C100.8,3.5 100.7,3.5 100.7,3.4 L100.6,3.1 C100.6,3 100.6,3 100.6,3 C100.6,3 100.7,2.9 100.8,2.9 C100.9,2.9 101.1,2.8 101.2,2.8 C101.3,2.8 101.5,2.7 101.7,2.7 C101.9,2.7 102.1,2.7 102.2,2.7 C102.3,2.7 102.5,2.7 102.7,2.7 C103.2,2.7 103.6,2.8 103.8,2.9 C104.1,3 104.3,3.1 104.4,3.3 C104.5,3.5 104.6,3.7 104.7,4 C104.7,4.3 104.8,4.6 104.8,4.9 L104.8,7.6 C104.8,7.7 104.8,7.8 104.8,7.9 C104.8,8 104.8,8 104.9,8 C104.9,8 105,8.1 105,8.1 C105.1,8.1 105.1,8.1 105.2,8.1 C105.3,8.1 105.4,8.2 105.4,8.3 L105.4,8.6 C105.4,8.7 105.4,8.7 105.4,8.7 C105.4,8.7 105.3,8.8 105.2,8.8 C105.1,8.8 104.9,8.8 104.8,8.8 C104.5,8.8 104.3,8.7 104.2,8.6 C104.2,8.4 104.1,8.2 104,8 L104,8 Z M104,5.8 L102.2,5.8 C101.8,5.8 101.5,5.9 101.3,6.1 C101.1,6.3 101,6.6 101,7.1 C101,7.4 101.1,7.7 101.2,7.8 C101.3,7.9 101.6,8 101.9,8 C102.1,8 102.2,8 102.4,7.9 C102.6,7.8 102.8,7.8 102.9,7.7 C103,7.6 103.3,7.6 103.4,7.5 C103.6,7.4 103.7,7.3 103.9,7.3 L103.9,5.8 L104,5.8 Z" id="Shape"></path>
                <path d="M110.6,8.4 C110.4,8.5 110.1,8.6 109.8,8.6 C109.5,8.6 109.1,8.7 108.8,8.7 C108.3,8.7 107.8,8.6 107.5,8.5 C107.2,8.3 106.9,8.1 106.8,7.8 C106.6,7.5 106.5,7.2 106.5,6.8 C106.4,6.4 106.4,6 106.4,5.6 C106.4,5.2 106.4,4.8 106.5,4.5 C106.6,4.1 106.7,3.8 106.8,3.5 C107,3.2 107.2,3 107.5,2.8 C107.8,2.6 108.2,2.5 108.8,2.5 C108.9,2.5 109.1,2.5 109.2,2.5 C109.3,2.5 109.5,2.5 109.7,2.5 C109.9,2.5 110,2.5 110.2,2.6 C110.4,2.6 110.5,2.7 110.6,2.7 C110.7,2.7 110.7,2.8 110.7,2.8 C110.7,2.8 110.7,2.9 110.7,2.9 L110.7,3.2 C110.7,3.3 110.6,3.3 110.6,3.3 C110.5,3.3 110.5,3.3 110.4,3.3 C110.2,3.3 109.9,3.3 109.6,3.2 C109.3,3.2 109,3.2 108.8,3.2 C108.5,3.2 108.3,3.2 108.1,3.3 C107.9,3.4 107.8,3.5 107.7,3.7 C107.6,3.9 107.5,4.1 107.5,4.4 C107.5,4.7 107.4,5 107.4,5.4 C107.4,5.8 107.4,6.2 107.5,6.5 C107.5,6.8 107.6,7 107.7,7.2 C107.8,7.4 108,7.5 108.1,7.6 C108.3,7.7 108.5,7.7 108.8,7.7 C108.9,7.7 109,7.7 109.2,7.7 C109.3,7.7 109.5,7.7 109.6,7.7 C109.7,7.7 109.9,7.7 110.1,7.7 C110.3,7.7 110.4,7.7 110.5,7.7 C110.6,7.7 110.6,7.7 110.7,7.7 C110.8,7.7 110.8,7.8 110.8,7.8 L110.8,8.1 C110.7,8.3 110.7,8.4 110.6,8.4 Z" id="Shape"></path>
                <path d="M112.8,1.2 C112.8,1.4 112.8,1.5 112.7,1.6 C112.6,1.7 112.5,1.8 112.3,1.8 C112.1,1.8 111.9,1.7 111.9,1.6 C111.8,1.5 111.8,1.4 111.8,1.2 C111.8,1 111.8,0.9 111.9,0.8 C112,0.7 112.1,0.7 112.3,0.7 C112.5,0.7 112.7,0.7 112.7,0.8 C112.7,0.9 112.8,1.1 112.8,1.2 Z M112.7,8.4 C112.7,8.5 112.6,8.6 112.5,8.6 L112,8.6 C111.9,8.6 111.8,8.5 111.8,8.4 L111.8,3 C111.8,2.9 111.8,2.9 111.9,2.8 C111.9,2.8 112,2.8 112.1,2.8 L112.6,2.8 C112.7,2.8 112.8,2.9 112.8,3 L112.8,8.4 L112.7,8.4 Z" id="Shape"></path>
                <path d="M116.2,8.4 C116.2,8.5 116.2,8.6 116.1,8.6 C116,8.6 115.9,8.7 115.8,8.7 C115.7,8.7 115.6,8.7 115.5,8.7 C115.3,8.7 115.1,8.7 115,8.6 C114.9,8.6 114.8,8.5 114.7,8.4 C114.6,8.3 114.6,8.2 114.5,8.1 C114.5,8 114.5,7.8 114.5,7.7 L114.5,0.4 C114.5,0.3 114.6,0.2 114.7,0.2 L115.2,0.2 C115.3,0.2 115.3,0.2 115.4,0.2 C115.5,0.2 115.5,0.3 115.5,0.4 L115.5,7.4 C115.5,7.6 115.5,7.7 115.6,7.8 C115.7,7.8 115.8,7.9 116.1,7.9 C116.2,7.9 116.3,7.9 116.3,8 L116.2,8.4 Z" id="Shape"></path>
                <path d="M118.3,1.2 C118.3,1.4 118.3,1.5 118.2,1.6 C118.1,1.7 118,1.8 117.8,1.8 C117.6,1.8 117.4,1.7 117.4,1.6 C117.3,1.5 117.3,1.4 117.3,1.2 C117.3,1 117.3,0.9 117.4,0.8 C117.5,0.7 117.6,0.7 117.8,0.7 C118,0.7 118.2,0.7 118.2,0.8 C118.2,0.9 118.3,1.1 118.3,1.2 Z M118.2,8.4 C118.2,8.5 118.1,8.6 118,8.6 L117.5,8.6 C117.4,8.6 117.3,8.5 117.3,8.4 L117.3,3 C117.3,2.9 117.3,2.9 117.4,2.8 C117.4,2.8 117.5,2.8 117.6,2.8 L118.1,2.8 C118.2,2.8 118.3,2.9 118.3,3 L118.3,8.4 L118.2,8.4 Z" id="Shape"></path>
                <path d="M123,8.3 C123,8.4 123,8.5 122.9,8.5 C122.8,8.5 122.7,8.6 122.6,8.6 C122.5,8.6 122.4,8.7 122.2,8.7 C122.1,8.7 121.9,8.7 121.8,8.7 C121.7,8.7 121.6,8.7 121.5,8.7 C121.2,8.7 121,8.7 120.9,8.6 C120.7,8.5 120.6,8.5 120.5,8.3 C120.4,8.1 120.3,8.1 120.3,7.9 C120.3,7.7 120.2,7.6 120.2,7.4 L120.2,3.5 L119.5,3.5 C119.4,3.5 119.3,3.4 119.3,3.3 L119.3,3 C119.3,2.9 119.4,2.8 119.5,2.8 L120.2,2.8 L120.2,1.5 C120.2,1.4 120.2,1.4 120.3,1.3 C120.3,1.3 120.4,1.2 120.5,1.2 L121,1.1 C121.1,1.1 121.2,1.1 121.2,1.3 L121.2,2.8 L122.5,2.8 C122.6,2.8 122.6,2.8 122.7,2.9 C122.7,2.9 122.7,3 122.7,3 L122.7,3.3 C122.7,3.4 122.7,3.4 122.7,3.5 C122.7,3.5 122.6,3.5 122.5,3.5 L121.2,3.5 L121.2,7.1 C121.2,7.2 121.2,7.4 121.2,7.4 C121.2,7.5 121.3,7.6 121.3,7.6 C121.4,7.7 121.5,7.7 121.6,7.7 C121.7,7.7 121.9,7.7 122,7.7 C122.1,7.7 122.2,7.7 122.3,7.7 C122.5,7.7 122.6,7.7 122.7,7.7 C122.8,7.7 122.9,7.7 122.9,7.7 C122.9,7.7 123,7.8 123,7.8 L123,8.3 Z" id="Shape"></path>
                <path d="M125.6,10.6 C125.6,10.7 125.6,10.7 125.5,10.7 C125.5,10.7 125.4,10.7 125.3,10.7 L124.7,10.7 C124.6,10.7 124.6,10.6 124.6,10.5 L125.3,8.6 L123.2,2.9 C123.2,2.9 123.2,2.8 123.2,2.8 C123.2,2.8 123.2,2.7 123.3,2.7 L123.9,2.7 C124,2.7 124,2.7 124,2.7 C124,2.7 124,2.8 124.1,2.8 L125.1,5.5 L125.7,7.3 C125.7,7.3 125.8,7.1 125.8,6.9 C125.9,6.7 126,6.5 126,6.2 C126.1,5.9 126.2,5.6 126.3,5.3 L127.2,2.6 C127.2,2.5 127.3,2.4 127.4,2.4 L128,2.4 C128.1,2.4 128.1,2.5 128.1,2.6 L125.6,10.6 Z" id="Shape"></path>
            </g>
        </g>
    </g>
</svg>