<?xml version="1.0" encoding="utf-8"?>
<!-- Generator: Adobe Illustrator 21.1.0, SVG Export Plug-In . SVG Version: 6.00 Build 0)  -->
<svg version="1.1" baseProfile="tiny" id="Layer_1" xmlns="http://www.w3.org/2000/svg" xmlns:xlink="http://www.w3.org/1999/xlink"
	 x="0px" y="0px" viewBox="0 0 270 43" xml:space="preserve">
<g>
<path d="M28.5 18.4h4.1c1.6 0 3-1.3 3-3v-.2-.1C35 6.7 28 0 19.4 0c-9 0-16.2 7.3-16.2 16.2 0 2.7.7 5.2 1.8 7.5-2.9 1.4-5 4.4-5 7.9 0 4.8 3.9 8.7 8.7 8.7 1 0 2-.2 3-.5.5 1.9 2.2 3.3 4.2 3.3 2.4 0 4.3-1.9 4.3-4.3 0-2-1.4-3.7-3.3-4.2.2-.7.4-1.4.5-2.2.6.1 1.3.1 2 .1 6.2 0 11.6-3.5 14.3-8.5.2-.4.4-.9.4-1.4 0-1.7-1.4-3-3-3-1.1 0-2.1.6-2.6 1.5-1.7 3.1-5.1 5.3-8.9 5.3-1.9 0-3.7-.5-5.2-1.4-.4-.2-.8-.5-1.2-.8-2.3-1.9-3.8-4.7-3.8-8C9.4 10.6 14 6 19.6 6c4 0 7.4 2.3 9.1 5.6.1.3.3.6.4.9H22.4c-1.6 0-3 1.3-3 3 0 1.6 1.3 3 3 3h6.1zM16.4 35.7c.1 0 .2 0 .2.1.1 0 .2 0 .2.1.1 0 .1.1.2.1s.1.1.2.1c.3.2.5.4.8.6l.1.1s0 .1.1.1l.1.1s0 .1.1.1c0 0 0 .1.1.1 0 0 0 .1.1.1 0 0 0 .1.1.1 0 0 0 .1.1.1v1c0 1.7-1.3 3-3 3h-.3H15.2 14.9h-.1s-.1 0-.1-.1c0 0-.1 0-.1-.1 0 0-.1 0-.1-.1 0 0-.1 0-.1-.1 0 0-.1 0-.1-.1l-.1-.1s-.1 0-.1-.1l-.1-.1c-.2-.2-.5-.5-.6-.8 0-.1-.1-.1-.1-.2s-.1-.1-.1-.2-.1-.2-.1-.2c-.1-.2-.1-.5-.1-.8 0-1.7 1.3-3 3-3 .1.2.2.2.4.2zm-1.9-4.1c0 3.2-2.6 5.8-5.8 5.8-3.2 0-5.8-2.6-5.8-5.8 0-3.2 2.6-5.8 5.8-5.8 3.2 0 5.8 2.6 5.8 5.8zm136.2-8.5c0 .9-.4 1.3-1.3 1.3H139v1c0 3.3 1.4 4.9 4.3 4.9 1.8 0 3.4-.4 4.8-1.1.2-.1.4-.2.5-.2.4 0 .7.2.9.5s.4.6.4 1c0 .5-.2.9-.8 1.3-1.7.9-3.8 1.4-6 1.4-2.6 0-4.5-.8-5.8-2.4-1.2-1.4-1.7-3.3-1.7-5.7v-3.5c0-2.4.5-4.3 1.7-5.7 1.3-1.6 3.2-2.4 5.8-2.4 2.7 0 4.5.8 5.9 2.4 1.1 1.3 1.6 3.2 1.6 5.6v1.6zm-3.3-1.9c0-3.2-1.4-4.8-4.1-4.8-2.8 0-4.3 1.6-4.3 4.8v.6h8.4v-.6zM79.2 33.4c-.7 0-1.4-.2-2-.8-.4-.3-.6-.8-.9-1.4-1.4 1.5-3.3 2.2-5.9 2.2-4.1 0-6.2-2.3-6.2-6.9V15.4c0-.5.2-.9.5-1.2s.7-.5 1.2-.5.9.2 1.2.5c.3.3.5.7.5 1.2v10.7c0 1.3.2 2.3.7 3s1.6 1.1 2.9 1.1c2.2 0 3.7-.9 4.6-2.6V15.3c0-.5.2-.9.5-1.2s.7-.5 1.2-.5.9.2 1.2.5c.3.3.5.7.5 1.2v13c0 1.2.4 2 1.2 2.4.5.2.6.6.6 1.1-.2 1.1-.8 1.6-1.8 1.6zm15.1-16.2c-.2 0-.4-.1-.6-.1s-.5-.1-.7-.1h-.5c-2.3 0-3.7 1.2-4.2 3.4v11.3c0 .5-.2.9-.5 1.2s-.7.5-1.2.5-.9-.2-1.2-.5c-.3-.3-.5-.7-.5-1.2V19c0-1.2-.4-2-1.2-2.4-.5-.2-.6-.6-.6-1.1 0-.9.5-1.5 1.6-1.5h.5c1.2.3 2.1 1.1 2.6 2.3 1.2-1.7 3-2.6 5.2-2.6 1 0 1.9.2 2.6.5.5.3.8.7.8 1.3 0 .5-.2.9-.5 1.2s-.7.5-1.1.5h-.5zM111.5 31c-1.3 1.6-3.3 2.3-5.9 2.3s-4.5-.8-5.8-2.3c-1.2-1.4-1.8-3.3-1.8-5.5v-3.9c0-2.3.6-4.1 1.8-5.5 1.3-1.6 3.3-2.3 5.8-2.3 2.6 0 4.6.8 5.9 2.3 1.2 1.4 1.8 3.3 1.8 5.5v3.9c0 2.3-.6 4.1-1.8 5.5zm-1.5-9.4c0-3.2-1.5-4.7-4.4-4.7s-4.3 1.6-4.3 4.7v3.9c0 3.2 1.4 4.8 4.3 4.8s4.4-1.6 4.4-4.8v-3.9zm15.4 11.8c-1.7 0-3.2-.5-4.5-1.5v6.5c0 .5-.2.9-.5 1.2s-.7.5-1.2.5-.9-.2-1.2-.5c-.3-.3-.5-.7-.5-1.2V18.7c0-1.2-.4-2-1.1-2.4-.5-.2-.6-.6-.6-1.1 0-.9.5-1.5 1.6-1.5.7 0 1.4.2 2 .8.2.2.5.5.7.9 1.6-1.1 3.2-1.6 5-1.6 4.7 0 7 2.6 7 7.7v3.4c.1 5.7-2.2 8.5-6.7 8.5zm3.5-12.2c0-3-1.4-4.6-4.2-4.6-1.3 0-2.6.5-3.8 1.6v10.5c1.2 1.2 2.5 1.7 4 1.7 2.7 0 4-1.7 4-5.1v-4.1zm39 12.2c-.8 0-1.5-.2-1.9-.8-.3-.2-.5-.6-.8-1.2-1.2 1.3-3 1.9-5.3 1.9s-4-.5-5.1-1.6c-1-1-1.6-2.3-1.6-4v-.3c0-1.6.5-3 1.6-4 1.2-1 3-1.6 5.3-1.6h4.4v-.9c0-1.6-.2-2.7-.8-3.4-.5-.8-1.6-1.2-3.2-1.2-1.4 0-2.7.3-3.9.9-.3.2-.5.2-.8.2-.4 0-.8-.2-1-.5s-.4-.6-.4-1c0-.5.2-.9.7-1.2 1.4-.9 3.3-1.3 5.6-1.3 2.6 0 4.4.6 5.5 1.9 1 1.2 1.5 3.1 1.5 5.7v7.1c0 1.2.4 2 1.1 2.4.5.3.6.6.6 1.1.1 1.3-.4 1.8-1.5 1.8zm-3.3-8.7l-4-.1c-2.6-.1-4.1.9-4.2 2.8v.3c-.1 1.9 1.2 3 3.8 3.1 2.7.1 4.2-1.2 4.3-3.8l.1-2.3zm23.5 8.2c-.3.3-.7.5-1.2.5s-.9-.2-1.2-.5-.5-.7-.5-1.2V21c0-1.3-.2-2.3-.7-3-.5-.8-1.6-1.2-2.9-1.2-2.2 0-3.7.8-4.6 2.4v12.5c0 .5-.2.9-.5 1.2s-.7.5-1.2.5-.9-.2-1.2-.5-.5-.7-.5-1.2V19c0-1.2-.4-2-1.2-2.4-.5-.2-.6-.6-.6-1.1 0-.9.5-1.5 1.6-1.5.7 0 1.4.2 2 .8.4.4.6.8.9 1.2 1.4-1.6 3.3-2.3 5.9-2.3 4.1 0 6.2 2.3 6.2 6.9v11.1c.2.5 0 .9-.3 1.2zm17.8.5c-.8 0-1.5-.2-1.9-.8-.3-.2-.5-.6-.8-1.2-1.2 1.3-3 1.9-5.3 1.9s-4-.5-5.1-1.6c-1-1-1.6-2.3-1.6-4v-.3c0-1.6.5-3 1.6-4 1.2-1 3-1.6 5.3-1.6h4.4v-.9c0-1.6-.2-2.7-.8-3.4-.5-.8-1.6-1.2-3.2-1.2-1.4 0-2.7.3-3.9.9-.3.2-.5.2-.8.2-.4 0-.8-.2-1-.5s-.4-.6-.4-1c0-.5.2-.9.7-1.2 1.4-.9 3.3-1.3 5.6-1.3 2.6 0 4.4.6 5.5 1.9 1 1.2 1.5 3.1 1.5 5.7v7.1c0 1.2.4 2 1.1 2.4.5.3.6.6.6 1.1.1 1.3-.4 1.8-1.5 1.8zm-3.4-8.8h-4c-2.6 0-4 1-4 3v.3c0 1.9 1.3 3 3.9 3 2.7 0 4.1-1.3 4.1-4v-2.3zm-143-1.5c0 .9-.4 1.3-1.3 1.3H47.9v1c0 3.3 1.4 4.9 4.3 4.9 1.8 0 3.4-.4 4.8-1.1.2-.1.4-.2.5-.2.4 0 .7.2.9.5s.4.6.4 1c0 .5-.2.9-.8 1.3-1.7.9-3.8 1.4-6 1.4-2.6 0-4.5-.8-5.8-2.4-1.2-1.4-1.7-3.3-1.7-5.7v-3.5c0-2.4.5-4.3 1.7-5.7 1.3-1.6 3.2-2.4 5.8-2.4 2.7 0 4.5.8 5.9 2.4 1.1 1.3 1.6 3.2 1.6 5.6v1.6zm-3.3-1.9c0-3.2-1.4-4.8-4.1-4.8-2.8 0-4.3 1.6-4.3 4.8v.6h8.4v-.6z"/><path d="M227.9 34.3c-1.7 0-3.2-.5-4.5-1.5v6.6c0 .5-.2.9-.5 1.2s-.7.5-1.2.5-.8-.2-1.2-.5-.5-.7-.5-1.2V19.5c0-1.2-.4-2-1.1-2.4-.4-.2-.6-.6-.6-1.1 0-1 .5-1.5 1.6-1.5.7 0 1.4.3 2 .8.3.2.5.5.7.9 1.6-1.1 3.2-1.7 5-1.7 4.7 0 7.1 2.6 7.1 7.7v3.5c.1 5.7-2.2 8.6-6.8 8.6zm3.5-12.2c0-3.1-1.4-4.6-4.2-4.6-1.3 0-2.6.5-3.9 1.6v10.6c1.1 1.2 2.5 1.8 4 1.8 2.7 0 4.1-1.7 4.1-5.2v-4.2zm17.1-4.1c-.2 0-.4-.1-.6-.1-.2 0-.5-.1-.7-.1h-.6c-2.3 0-3.8 1.2-4.2 3.5v11.4c0 .5-.2.9-.5 1.2s-.7.5-1.2.5-.9-.2-1.2-.5-.5-.7-.5-1.2v-13c0-1.2-.4-2-1.2-2.4-.4-.2-.6-.6-.6-1.1 0-1 .5-1.5 1.6-1.5h.5c1.2.3 2.1 1.1 2.6 2.4 1.2-1.8 3-2.6 5.3-2.6 1 0 1.9.2 2.6.5.5.3.8.7.8 1.3 0 .5-.2.9-.5 1.2-.3.3-.7.5-1.1.5h-.5zm15.6 14c-1.3 1.6-3.3 2.3-5.9 2.3s-4.6-.8-5.9-2.3c-1.2-1.4-1.8-3.3-1.8-5.6v-3.9c0-2.3.6-4.2 1.8-5.6 1.3-1.6 3.3-2.3 5.9-2.3 2.6 0 4.6.8 5.9 2.3 1.2 1.4 1.8 3.3 1.8 5.6v3.9c0 2.3-.6 4.2-1.8 5.6zm-1.5-9.5c0-3.2-1.5-4.8-4.4-4.8s-4.3 1.6-4.3 4.8v3.9c0 3.2 1.4 4.8 4.3 4.8s4.4-1.6 4.4-4.8v-3.9z" fill="#777"/>
</g>
</svg>
