<?xml version="1.0" encoding="utf-8"?>
<!-- Generator: Adobe Illustrator 21.1.0, SVG Export Plug-In . SVG Version: 6.00 Build 0)  -->
<svg version="1.1" baseProfile="tiny" id="Layer_1" xmlns="http://www.w3.org/2000/svg" xmlns:xlink="http://www.w3.org/1999/xlink"
	 x="0px" y="0px" viewBox="0 0 387.5 100.1" xml:space="preserve">
<g>
	<path d="M110.7,33.8c0,1.1-0.5,1.7-1.6,1.7H95.8v1.3c0,4.2,1.8,6.3,5.5,6.3c2.3,0,4.4-0.5,6.1-1.4c0.2-0.1,0.5-0.2,0.7-0.2
		c0.5,0,0.9,0.2,1.2,0.6s0.5,0.8,0.5,1.3c0,0.7-0.3,1.2-1,1.6c-2.2,1.2-4.8,1.8-7.7,1.8c-3.3,0-5.8-1-7.4-3.1
		c-1.5-1.8-2.2-4.2-2.2-7.3v-4.5c0-3.1,0.7-5.5,2.2-7.3c1.7-2,4.1-3.1,7.4-3.1c3.4,0,5.8,1,7.5,3.1c1.4,1.7,2.1,4.1,2.1,7.2V33.8z
		 M106.5,31.3c0-4.1-1.8-6.2-5.3-6.2c-3.6,0-5.5,2.1-5.5,6.2v0.8h10.8V31.3z"/>
	<path d="M135.8,46.8c-0.9,0-1.8-0.3-2.6-1c-0.5-0.4-0.8-1-1.2-1.8c-1.8,1.9-4.3,2.8-7.6,2.8c-5.3,0-8-3-8-8.9V23.7
		c0-0.6,0.2-1.1,0.6-1.5c0.4-0.4,0.9-0.6,1.5-0.6s1.1,0.2,1.5,0.6c0.4,0.4,0.6,0.9,0.6,1.5v13.8c0,1.7,0.3,3,0.9,3.8
		c0.7,0.9,2,1.4,3.7,1.4c2.8,0,4.8-1.1,5.9-3.3V23.6c0-0.6,0.2-1.1,0.6-1.5c0.4-0.4,0.9-0.6,1.5-0.6s1.1,0.2,1.5,0.6
		c0.4,0.4,0.6,0.9,0.6,1.5v16.7c0,1.5,0.5,2.6,1.5,3.1c0.6,0.3,0.8,0.8,0.8,1.4C137.9,46.2,137.2,46.8,135.8,46.8z"/>
	<path d="M155.9,26c-0.3,0-0.5-0.1-0.8-0.1s-0.6-0.1-0.9-0.1c-0.3,0-0.5,0-0.7,0c-3,0-4.8,1.5-5.4,4.4v14.5c0,0.6-0.2,1.1-0.6,1.5
		c-0.4,0.4-0.9,0.6-1.5,0.6s-1.1-0.2-1.5-0.6s-0.6-0.9-0.6-1.5V28.3c0-1.5-0.5-2.6-1.5-3.1c-0.6-0.3-0.8-0.8-0.8-1.4
		c0-1.2,0.7-1.9,2.1-1.9c0.4,0,0.6,0,0.7,0c1.6,0.4,2.7,1.4,3.3,3c1.6-2.2,3.8-3.4,6.7-3.4c1.3,0,2.4,0.2,3.3,0.6
		c0.7,0.4,1,0.9,1,1.7c0,0.6-0.2,1.1-0.6,1.5c-0.4,0.4-0.9,0.6-1.4,0.6C156.4,26,156.2,26,155.9,26z"/>
	<path d="M177.4,43.8c-1.7,2-4.2,3-7.6,3c-3.3,0-5.8-1-7.5-3c-1.5-1.8-2.3-4.2-2.3-7.1v-5c0-3,0.8-5.3,2.3-7.1c1.7-2,4.2-3,7.5-3
		c3.4,0,5.9,1,7.6,3c1.5,1.8,2.3,4.2,2.3,7.1v5C179.7,39.7,178.9,42,177.4,43.8z M175.4,31.7c0-4.1-1.9-6.1-5.6-6.1
		c-3.7,0-5.5,2-5.5,6.1v5c0,4.1,1.8,6.2,5.5,6.2s5.6-2.1,5.6-6.2V31.7z"/>
	<path d="M196.4,46.8c-2.2,0-4.1-0.6-5.8-1.9v8.4c0,0.6-0.2,1.1-0.6,1.5c-0.4,0.4-0.9,0.6-1.5,0.6s-1.1-0.2-1.5-0.6
		s-0.6-0.9-0.6-1.5V27.9c0-1.6-0.5-2.6-1.4-3.1c-0.6-0.3-0.8-0.8-0.8-1.4c0-1.2,0.7-1.9,2.1-1.9c0.9,0,1.8,0.3,2.6,1
		c0.3,0.3,0.6,0.7,0.9,1.1c2-1.4,4.1-2.1,6.4-2.1c6,0,9,3.3,9,9.9v4.4C205.2,43.2,202.2,46.8,196.4,46.8z M200.9,31.2
		c0-3.9-1.8-5.9-5.4-5.9c-1.7,0-3.4,0.7-4.9,2v13.5c1.5,1.5,3.2,2.2,5.1,2.2c3.5,0,5.2-2.2,5.2-6.6L200.9,31.2L200.9,31.2z"/>
	<path d="M229.6,33.8c0,1.1-0.5,1.7-1.6,1.7h-13.3v1.3c0,4.2,1.8,6.3,5.5,6.3c2.3,0,4.4-0.5,6.1-1.4c0.2-0.1,0.5-0.2,0.7-0.2
		c0.5,0,0.9,0.2,1.2,0.6s0.5,0.8,0.5,1.3c0,0.7-0.3,1.2-1,1.6c-2.2,1.2-4.8,1.8-7.7,1.8c-3.3,0-5.8-1-7.4-3.1
		c-1.5-1.8-2.2-4.2-2.2-7.3v-4.5c0-3.1,0.7-5.5,2.2-7.3c1.7-2,4.1-3.1,7.4-3.1c3.4,0,5.8,1,7.5,3.1c1.4,1.7,2.1,4.1,2.1,7.2V33.8z
		 M225.5,31.3c0-4.1-1.8-6.2-5.3-6.2c-3.6,0-5.5,2.1-5.5,6.2v0.8h10.8V31.3z"/>
	<path d="M252.4,46.8c-1,0-1.9-0.3-2.5-1c-0.4-0.3-0.7-0.8-1-1.5c-1.5,1.7-3.8,2.5-6.8,2.5c-2.9,0-5.1-0.7-6.5-2c-1.3-1.3-2-3-2-5.1
		v-0.4c0-2.1,0.7-3.8,2.1-5.1c1.6-1.3,3.9-2,6.8-2h5.6V31c0-2.1-0.3-3.5-1-4.4c-0.7-1-2.1-1.5-4.1-1.5c-1.8,0-3.5,0.4-5,1.2
		c-0.4,0.2-0.7,0.3-1,0.3c-0.5,0-1-0.2-1.3-0.6c-0.3-0.4-0.5-0.8-0.5-1.3c0-0.6,0.3-1.1,0.9-1.5c1.8-1.1,4.2-1.7,7.2-1.7
		c3.3,0,5.7,0.8,7.1,2.5c1.3,1.5,1.9,4,1.9,7.3v9.1c0,1.5,0.5,2.6,1.4,3.1c0.6,0.4,0.8,0.8,0.8,1.4
		C254.5,46.2,253.8,46.8,252.4,46.8z M248,35.5h-5.1c-3.4,0-5.2,1.3-5.2,3.8v0.4c0,2.5,1.7,3.8,5,3.8c3.5,0,5.3-1.7,5.3-5.1
		L248,35.5z"/>
	<path d="M278.5,46.2c-0.4,0.4-0.9,0.6-1.5,0.6c-0.6,0-1.1-0.2-1.5-0.6c-0.4-0.4-0.6-0.9-0.6-1.5V30.9c0-1.7-0.3-3-0.9-3.8
		c-0.7-1-2-1.5-3.7-1.5c-2.8,0-4.7,1-5.9,3.1v16c0,0.6-0.2,1.1-0.6,1.5s-0.9,0.6-1.5,0.6s-1.1-0.2-1.5-0.6s-0.6-0.9-0.6-1.5V28.3
		c0-1.5-0.5-2.6-1.5-3.1c-0.6-0.3-0.8-0.8-0.8-1.4c0-1.2,0.7-1.9,2.1-1.9c0.9,0,1.8,0.3,2.6,1c0.5,0.5,0.8,1,1.1,1.6
		c1.8-2,4.3-2.9,7.6-2.9c5.3,0,8,3,8,8.9v14.2C279.1,45.3,278.9,45.8,278.5,46.2z"/>
	<path d="M303.2,46.8c-1,0-1.9-0.3-2.5-1c-0.4-0.3-0.7-0.8-1-1.5c-1.5,1.7-3.8,2.5-6.8,2.5c-2.9,0-5.1-0.7-6.5-2c-1.3-1.3-2-3-2-5.1
		v-0.4c0-2.1,0.7-3.8,2.1-5.1c1.6-1.3,3.9-2,6.8-2h5.6V31c0-2.1-0.3-3.5-1-4.4c-0.7-1-2.1-1.5-4.1-1.5c-1.8,0-3.5,0.4-5,1.2
		c-0.4,0.2-0.7,0.3-1,0.3c-0.5,0-1-0.2-1.3-0.6c-0.3-0.4-0.5-0.8-0.5-1.3c0-0.6,0.3-1.1,0.9-1.5c1.8-1.1,4.2-1.7,7.2-1.7
		c3.3,0,5.7,0.8,7.1,2.5c1.3,1.5,1.9,4,1.9,7.3v9.1c0,1.5,0.5,2.6,1.4,3.1c0.6,0.4,0.8,0.8,0.8,1.4
		C305.3,46.2,304.6,46.8,303.2,46.8z M298.9,35.5h-5.1c-3.4,0-5.2,1.3-5.2,3.8v0.4c0,2.5,1.7,3.8,5,3.8c3.5,0,5.3-1.7,5.3-5.1V35.5z
		"/>
</g>
<path d="M66.6,43H76c0,0,0,0,0,0c3.8,0,6.9-3.1,6.9-7c0-0.2,0-0.3,0-0.5c0,0,0,0,0,0c0-0.1,0-0.1,0-0.2c0,0,0-0.1,0-0.1
	C81.6,15.6,65.3,0,45.3,0C24.4,0,7.5,17,7.5,37.8c0,6.3,1.5,12.2,4.2,17.4C4.9,58.5,0.2,65.5,0.2,73.5c0,11.2,9.1,20.3,20.3,20.3
	c2.4,0,4.7-0.4,6.9-1.2c1.1,4.3,5,7.6,9.7,7.6c5.5,0,10-4.5,10-10c0-4.7-3.2-8.6-7.6-9.7c0.6-1.6,1-3.3,1.1-5c1.5,0.2,3,0.3,4.6,0.3
	c14.4,0,26.9-8.1,33.3-19.9c0,0,0,0,0,0c0.5-1,0.8-2.1,0.8-3.4c0-3.9-3.2-7.1-7.1-7.1c-2.6,0-4.9,1.4-6.1,3.5c0,0,0,0,0,0
	c-4,7.3-11.8,12.3-20.8,12.3c-4.4,0-8.5-1.2-12-3.3c-1-0.5-1.8-1.2-2.7-1.9c-5.4-4.3-8.9-11-8.9-18.5c0-13.1,10.6-23.7,23.7-23.7
	c9.3,0,17.3,5.4,21.2,13.1c0.3,0.7,0.6,1.4,0.9,2.1c0,0-9.5,0-9.5,0h-6c0,0,0,0,0,0c-3.8,0-6.9,3.1-6.9,6.9c0,3.8,3.1,6.9,6.9,6.9v0
	H66.6z M38.3,83.2L38.3,83.2c0.2,0,0.4,0.1,0.6,0.1c0,0,0,0,0,0c0.2,0,0.4,0.1,0.5,0.2c0,0,0,0,0.1,0c0.2,0.1,0.3,0.1,0.5,0.2
	c0,0,0,0,0.1,0c0.2,0.1,0.3,0.2,0.5,0.3c0,0,0,0,0,0c0.7,0.4,1.3,0.9,1.8,1.5c0,0,0,0,0.1,0.1c0.1,0.1,0.2,0.2,0.3,0.3
	c0,0.1,0.1,0.1,0.1,0.2c0.1,0.1,0.1,0.2,0.2,0.3c0.1,0.1,0.1,0.2,0.2,0.2c0.1,0.1,0.1,0.2,0.2,0.3c0,0.1,0.1,0.2,0.1,0.3
	c0,0.1,0.1,0.2,0.1,0.3c0,0.1,0.1,0.2,0.1,0.3c0,0.1,0.1,0.2,0.1,0.3c0,0.1,0.1,0.2,0.1,0.4c0,0.1,0,0.2,0.1,0.3
	c0,0.1,0,0.3,0.1,0.4c0,0.1,0,0.2,0,0.2c0,0.2,0,0.4,0,0.7c0,3.9-3.1,7-7,7c-0.2,0-0.5,0-0.7,0c-0.1,0-0.2,0-0.2,0
	c-0.1,0-0.3,0-0.4-0.1c-0.1,0-0.2,0-0.3-0.1c-0.1,0-0.2-0.1-0.4-0.1c-0.1,0-0.2-0.1-0.3-0.1c-0.1,0-0.2-0.1-0.3-0.1
	c-0.1,0-0.2-0.1-0.3-0.1c-0.1,0-0.2-0.1-0.3-0.1c-0.1,0-0.2-0.1-0.3-0.2c-0.1,0-0.2-0.1-0.2-0.2c-0.1-0.1-0.2-0.1-0.3-0.2
	c-0.1,0-0.1-0.1-0.2-0.1c-0.1-0.1-0.2-0.2-0.3-0.3c0,0,0,0-0.1-0.1c-0.6-0.5-1.1-1.1-1.5-1.8c0,0,0,0,0,0c-0.1-0.2-0.2-0.3-0.3-0.5
	c0,0,0,0,0-0.1c-0.1-0.2-0.1-0.3-0.2-0.5c0,0,0,0,0-0.1c-0.1-0.2-0.1-0.4-0.2-0.5c0,0,0,0,0,0c-0.2-0.6-0.2-1.2-0.2-1.8
	c0-3.9,3.1-7,7-7C37.5,83.1,37.9,83.2,38.3,83.2z M33.9,73.5c0,7.4-6,13.4-13.4,13.4c-7.4,0-13.4-6-13.4-13.4
	c0-7.4,6-13.4,13.4-13.4C27.9,60.1,33.9,66.1,33.9,73.5z"/>
<g>
	<path fill-rule="evenodd" fill="#777777" d="M360.3,25.7c0.6,0,1-0.2,1.4-0.6c0.4-0.4,0.6-0.9,0.6-1.5c0-0.8-0.3-1.4-1-1.7
		c-0.8-0.4-1.9-0.6-3.3-0.6c-2.9,0-5.1,1.1-6.7,3.4c-0.6-1.6-1.7-2.6-3.3-3c-0.1,0-0.3,0-0.7,0c-1.4,0-2.1,0.6-2.1,1.9
		c0,0.7,0.3,1.1,0.8,1.4c1,0.5,1.5,1.5,1.5,3.1v16.4c0,0.6,0.2,1.1,0.6,1.5s0.9,0.6,1.5,0.6c0.6,0,1.1-0.2,1.5-0.6
		c0.4-0.4,0.6-0.9,0.6-1.5V29.8c0.6-3,2.4-4.4,5.4-4.4c0.2,0,0.4,0,0.7,0c0.3,0,0.6,0.1,0.9,0.1c0.3,0,0.6,0.1,0.8,0.1
		C359.9,25.7,360.1,25.7,360.3,25.7z"/>
	<path fill-rule="evenodd" fill="#777777" d="M331.8,21.3c-2.3,0-4.4,0.7-6.4,2.1c-0.3-0.5-0.6-0.8-0.9-1.1c-0.8-0.7-1.6-1-2.6-1
		c-1.4,0-2.1,0.6-2.1,1.9c0,0.7,0.3,1.1,0.8,1.4c0.9,0.5,1.4,1.5,1.4,3.1V53c0,0.6,0.2,1.1,0.6,1.5c0.4,0.4,0.9,0.6,1.5,0.6
		c0.6,0,1.1-0.2,1.5-0.6c0.4-0.4,0.6-0.9,0.6-1.5v-8.4c1.7,1.3,3.6,1.9,5.8,1.9c5.8,0,8.8-3.6,8.8-10.9v-4.4
		C340.8,24.6,337.8,21.3,331.8,21.3z M336.5,36.2c0,4.4-1.7,6.6-5.2,6.6c-1.9,0-3.6-0.7-5.1-2.2V27c1.6-1.4,3.2-2.1,4.9-2.1
		c3.6,0,5.4,2,5.4,5.9V36.2z"/>
	<path fill-rule="evenodd" fill="#777777" d="M379.8,24.3c-1.7-2-4.2-3-7.6-3c-3.3,0-5.8,1-7.5,3c-1.5,1.8-2.3,4.2-2.3,7.1v5
		c0,3,0.8,5.3,2.3,7.1c1.7,2,4.2,3,7.5,3c3.3,0,5.9-1,7.6-3c1.5-1.8,2.3-4.2,2.3-7.1v-5C382.1,28.4,381.3,26.1,379.8,24.3z
		 M377.8,36.4c0,4.1-1.9,6.2-5.6,6.2c-3.7,0-5.5-2.1-5.5-6.2v-5c0-4.1,1.8-6.2,5.5-6.2c3.7,0,5.6,2.1,5.6,6.2V36.4z"/>
</g>
</svg>
