<?xml version="1.0" encoding="UTF-8"?>
<svg width="352px" height="59px" viewBox="0 0 352 59" version="1.1" xmlns="http://www.w3.org/2000/svg" xmlns:xlink="http://www.w3.org/1999/xlink">
    <!-- Generator: Sketch 52.6 (67491) - http://www.bohemiancoding.com/sketch -->
    <title>Artboard</title>
    <desc>Created with Sketch.</desc>
    <g id="Artboard" stroke="none" stroke-width="1" fill="none" fill-rule="evenodd">
        <g id="europeana_pro_logo" transform="translate(1.000000, 1.000000)">
            <g id="Group" transform="translate(59.000000, 18.000000)" fill="#000000">
                <path d="M19.7,12.8 C19.7,13.9 19.2,14.5 18.1,14.5 L4.8,14.5 L4.8,15.8 C4.8,20 6.6,22.1 10.3,22.1 C12.6,22.1 14.7,21.6 16.4,20.7 C16.6,20.6 16.9,20.5 17.1,20.5 C17.6,20.5 18,20.7 18.3,21.1 C18.6,21.5 18.8,21.9 18.8,22.4 C18.8,23.1 18.5,23.6 17.8,24 C15.6,25.2 13,25.8 10.1,25.8 C6.8,25.8 4.3,24.8 2.7,22.7 C1.2,20.9 0.5,18.5 0.5,15.4 L0.5,10.9 C0.5,7.8 1.2,5.4 2.7,3.6 C4.4,1.6 6.8,0.5 10.1,0.5 C13.5,0.5 15.9,1.5 17.6,3.6 C19,5.3 19.7,7.7 19.7,10.8 L19.7,12.8 Z M15.5,10.3 C15.5,6.2 13.7,4.1 10.2,4.1 C6.6,4.1 4.7,6.2 4.7,10.3 L4.7,11.1 L15.5,11.1 L15.5,10.3 Z" id="Shape" fill-rule="nonzero"></path>
                <path d="M44.8,25.8 C43.9,25.8 43,25.5 42.2,24.8 C41.7,24.4 41.4,23.8 41,23 C39.2,24.9 36.7,25.8 33.4,25.8 C28.1,25.8 25.4,22.8 25.4,16.9 L25.4,2.7 C25.4,2.1 25.6,1.6 26,1.2 C26.4,0.8 26.9,0.6 27.5,0.6 C28.1,0.6 28.6,0.8 29,1.2 C29.4,1.6 29.6,2.1 29.6,2.7 L29.6,16.5 C29.6,18.2 29.9,19.5 30.5,20.3 C31.2,21.2 32.5,21.7 34.2,21.7 C37,21.7 39,20.6 40.1,18.4 L40.1,2.6 C40.1,2 40.3,1.5 40.7,1.1 C41.1,0.7 41.6,0.5 42.2,0.5 C42.8,0.5 43.3,0.7 43.7,1.1 C44.1,1.5 44.3,2 44.3,2.6 L44.3,19.3 C44.3,20.8 44.8,21.9 45.8,22.4 C46.4,22.7 46.6,23.2 46.6,23.8 C46.9,25.2 46.2,25.8 44.8,25.8 Z" id="Path"></path>
                <path d="M64.9,5 C64.6,5 64.4,4.9 64.1,4.9 C63.8,4.9 63.5,4.8 63.2,4.8 C62.9,4.8 62.7,4.8 62.5,4.8 C59.5,4.8 57.7,6.3 57.1,9.2 L57.1,23.7 C57.1,24.3 56.9,24.8 56.5,25.2 C56.1,25.6 55.6,25.8 55,25.8 C54.4,25.8 53.9,25.6 53.5,25.2 C53.1,24.8 52.9,24.3 52.9,23.7 L52.9,7.3 C52.9,5.8 52.4,4.7 51.4,4.2 C50.8,3.9 50.6,3.4 50.6,2.8 C50.6,1.6 51.3,0.9 52.7,0.9 C53.1,0.9 53.3,0.9 53.4,0.9 C55,1.3 56.1,2.3 56.7,3.9 C58.3,1.7 60.5,0.5 63.4,0.5 C64.7,0.5 65.8,0.7 66.7,1.1 C67.4,1.5 67.7,2 67.7,2.8 C67.7,3.4 67.5,3.9 67.1,4.3 C66.7,4.7 66.2,4.9 65.7,4.9 C65.4,5 65.2,5 64.9,5 Z" id="Path"></path>
                <path d="M86.4,22.8 C84.7,24.8 82.2,25.8 78.8,25.8 C75.5,25.8 73,24.8 71.3,22.8 C69.8,21 69,18.6 69,15.7 L69,10.7 C69,7.7 69.8,5.4 71.3,3.6 C73,1.6 75.5,0.6 78.8,0.6 C82.2,0.6 84.7,1.6 86.4,3.6 C87.9,5.4 88.7,7.8 88.7,10.7 L88.7,15.7 C88.7,18.7 87.9,21 86.4,22.8 Z M84.4,10.7 C84.4,6.6 82.5,4.6 78.8,4.6 C75.1,4.6 73.3,6.6 73.3,10.7 L73.3,15.7 C73.3,19.8 75.1,21.9 78.8,21.9 C82.5,21.9 84.4,19.8 84.4,15.7 L84.4,10.7 Z" id="Shape" fill-rule="nonzero"></path>
                <path d="M105.4,25.8 C103.2,25.8 101.3,25.2 99.6,23.9 L99.6,32.3 C99.6,32.9 99.4,33.4 99,33.8 C98.6,34.2 98.1,34.4 97.5,34.4 C96.9,34.4 96.4,34.2 96,33.8 C95.6,33.4 95.4,32.9 95.4,32.3 L95.4,6.9 C95.4,5.3 94.9,4.3 94,3.8 C93.4,3.5 93.2,3 93.2,2.4 C93.2,1.2 93.9,0.5 95.3,0.5 C96.2,0.5 97.1,0.8 97.9,1.5 C98.2,1.8 98.5,2.2 98.8,2.6 C100.8,1.2 102.9,0.5 105.2,0.5 C111.2,0.5 114.2,3.8 114.2,10.4 L114.2,14.8 C114.2,22.2 111.2,25.8 105.4,25.8 Z M109.9,10.2 C109.9,6.3 108.1,4.3 104.5,4.3 C102.8,4.3 101.1,5 99.6,6.3 L99.6,19.8 C101.1,21.3 102.8,22 104.7,22 C108.2,22 109.9,19.8 109.9,15.4 L109.9,10.2 Z" id="Shape" fill-rule="nonzero"></path>
                <path d="M138.6,12.8 C138.6,13.9 138.1,14.5 137,14.5 L123.7,14.5 L123.7,15.8 C123.7,20 125.5,22.1 129.2,22.1 C131.5,22.1 133.6,21.6 135.3,20.7 C135.5,20.6 135.8,20.5 136,20.5 C136.5,20.5 136.9,20.7 137.2,21.1 C137.5,21.5 137.7,21.9 137.7,22.4 C137.7,23.1 137.4,23.6 136.7,24 C134.5,25.2 131.9,25.8 129,25.8 C125.7,25.8 123.2,24.8 121.6,22.7 C120.1,20.9 119.4,18.5 119.4,15.4 L119.4,10.9 C119.4,7.8 120.1,5.4 121.6,3.6 C123.3,1.6 125.7,0.5 129,0.5 C132.4,0.5 134.8,1.5 136.5,3.6 C137.9,5.3 138.6,7.7 138.6,10.8 L138.6,12.8 Z M134.5,10.3 C134.5,6.2 132.7,4.1 129.2,4.1 C125.6,4.1 123.7,6.2 123.7,10.3 L123.7,11.1 L134.5,11.1 L134.5,10.3 Z" id="Shape" fill-rule="nonzero"></path>
                <path d="M161.4,25.8 C160.4,25.8 159.5,25.5 158.9,24.8 C158.5,24.5 158.2,24 157.9,23.3 C156.4,25 154.1,25.8 151.1,25.8 C148.2,25.8 146,25.1 144.6,23.8 C143.3,22.5 142.6,20.8 142.6,18.7 L142.6,18.3 C142.6,16.2 143.3,14.5 144.7,13.2 C146.3,11.9 148.6,11.2 151.5,11.2 L157.1,11.2 L157.1,10 C157.1,7.9 156.8,6.5 156.1,5.6 C155.4,4.6 154,4.1 152,4.1 C150.2,4.1 148.5,4.5 147,5.3 C146.6,5.5 146.3,5.6 146,5.6 C145.5,5.6 145,5.4 144.7,5 C144.4,4.6 144.2,4.2 144.2,3.7 C144.2,3.1 144.5,2.6 145.1,2.2 C146.9,1.1 149.3,0.5 152.3,0.5 C155.6,0.5 158,1.3 159.4,3 C160.7,4.5 161.3,7 161.3,10.3 L161.3,19.4 C161.3,20.9 161.8,22 162.7,22.5 C163.3,22.9 163.5,23.3 163.5,23.9 C163.5,25.2 162.8,25.8 161.4,25.8 Z M157,14.5 L151.9,14.5 C148.5,14.5 146.7,15.8 146.7,18.3 L146.7,18.7 C146.7,21.2 148.4,22.5 151.7,22.5 C155.2,22.5 157,20.8 157,17.4 L157,14.5 Z" id="Shape" fill-rule="nonzero"></path>
                <path d="M187.5,25.2 C187.1,25.6 186.6,25.8 186,25.8 C185.4,25.8 184.9,25.6 184.5,25.2 C184.1,24.8 183.9,24.3 183.9,23.7 L183.9,9.9 C183.9,8.2 183.6,6.9 183,6.1 C182.3,5.1 181,4.6 179.3,4.6 C176.5,4.6 174.6,5.6 173.4,7.7 L173.4,23.7 C173.4,24.3 173.2,24.8 172.8,25.2 C172.4,25.6 171.9,25.8 171.3,25.8 C170.7,25.8 170.2,25.6 169.8,25.2 C169.4,24.8 169.2,24.3 169.2,23.7 L169.2,7.3 C169.2,5.8 168.7,4.7 167.7,4.2 C167.1,3.9 166.9,3.4 166.9,2.8 C166.9,1.6 167.6,0.9 169,0.9 C169.9,0.9 170.8,1.2 171.6,1.9 C172.1,2.4 172.4,2.9 172.7,3.5 C174.5,1.5 177,0.6 180.3,0.6 C185.6,0.6 188.3,3.6 188.3,9.5 L188.3,23.7 C188.1,24.3 187.9,24.8 187.5,25.2 Z" id="Path"></path>
                <path d="M212.2,25.8 C211.2,25.8 210.3,25.5 209.7,24.8 C209.3,24.5 209,24 208.7,23.3 C207.2,25 204.9,25.8 201.9,25.8 C199,25.8 196.8,25.1 195.4,23.8 C194.1,22.5 193.4,20.8 193.4,18.7 L193.4,18.3 C193.4,16.2 194.1,14.5 195.5,13.2 C197.1,11.9 199.4,11.2 202.3,11.2 L207.9,11.2 L207.9,10 C207.9,7.9 207.6,6.5 206.9,5.6 C206.2,4.6 204.8,4.1 202.8,4.1 C201,4.1 199.3,4.5 197.8,5.3 C197.4,5.5 197.1,5.6 196.8,5.6 C196.3,5.6 195.8,5.4 195.5,5 C195.2,4.6 195,4.2 195,3.7 C195,3.1 195.3,2.6 195.9,2.2 C197.7,1.1 200.1,0.5 203.1,0.5 C206.4,0.5 208.8,1.3 210.2,3 C211.5,4.5 212.1,7 212.1,10.3 L212.1,19.4 C212.1,20.9 212.6,22 213.5,22.5 C214.1,22.9 214.3,23.3 214.3,23.9 C214.3,25.2 213.6,25.8 212.2,25.8 Z M207.9,14.5 L202.8,14.5 C199.4,14.5 197.6,15.8 197.6,18.3 L197.6,18.7 C197.6,21.2 199.3,22.5 202.6,22.5 C206.1,22.5 207.9,20.8 207.9,17.4 L207.9,14.5 Z" id="Shape" fill-rule="nonzero"></path>
            </g>
            <path d="M37.7363966,24.4610778 L43.0785973,24.4610778 C43.0785973,24.4610778 43.0785973,24.4610778 43.0785973,24.4610778 C45.2382104,24.4610778 47,22.6976048 47,20.4790419 C47,20.3652695 47,20.3083832 47,20.1946108 C47,20.1946108 47,20.1946108 47,20.1946108 C47,20.1377246 47,20.1377246 47,20.0808383 C47,20.0808383 47,20.0239521 47,20.0239521 C46.261185,8.8742515 36.9975816,0 25.6311971,0 C13.7533253,0 4.14873035,9.67065868 4.14873035,21.502994 C4.14873035,25.0868263 5.00120919,28.4431138 6.5356711,31.4011976 C2.67110036,33.2784431 0,37.260479 0,41.8113772 C0,48.1826347 5.17170496,53.3592814 11.5368803,53.3592814 C12.9008464,53.3592814 14.2079807,53.1317365 15.458283,52.6766467 C16.0834341,55.1227545 18.2998791,57 20.9709794,57 C24.0967352,57 26.6541717,54.4401198 26.6541717,51.3113772 C26.6541717,48.6377246 24.8355502,46.4191617 22.3349456,45.7934132 C22.6759371,44.8832335 22.9032648,43.9161677 22.9600967,42.9491018 C23.8125756,43.0628743 24.6650544,43.1197605 25.5743652,43.1197605 C33.758162,43.1197605 40.8621524,38.511976 44.4993954,31.7994012 C44.4993954,31.7994012 44.4993954,31.7994012 44.4993954,31.7994012 C44.783555,31.2305389 44.9540508,30.6047904 44.9540508,29.8652695 C44.9540508,27.6467066 43.1354293,25.8263473 40.9189843,25.8263473 C39.4413543,25.8263473 38.1342201,26.6227545 37.452237,27.8173653 C37.452237,27.8173653 37.452237,27.8173653 37.452237,27.8173653 C35.1789601,31.9700599 30.7460701,34.8143713 25.6311971,34.8143713 C23.1305925,34.8143713 20.8004837,34.1317365 18.8113664,32.9371257 C18.2430472,32.6526946 17.7883918,32.254491 17.2769045,31.8562874 C14.2079807,29.4101796 12.2188634,25.5988024 12.2188634,21.3323353 C12.2188634,13.8802395 18.2430472,7.8502994 25.688029,7.8502994 C30.9733978,7.8502994 35.5199516,10.9221557 37.7363966,15.3023952 C37.9068924,15.7005988 38.0773881,16.0988024 38.2478839,16.497006 C38.2478839,16.497006 32.8488513,16.497006 32.8488513,16.497006 L29.4389359,16.497006 C29.4389359,16.497006 29.4389359,16.497006 29.4389359,16.497006 C27.2793229,16.497006 25.5175333,18.260479 25.5175333,20.4221557 C25.5175333,22.5838323 27.2793229,24.3473054 29.4389359,24.3473054 L37.7363966,24.3473054 L37.7363966,24.4610778 Z M21.6285714,47.1134752 C21.7428571,47.1134752 21.8571429,47.1702128 21.9714286,47.1702128 C21.9714286,47.1702128 21.9714286,47.1702128 21.9714286,47.1702128 C22.0857143,47.1702128 22.2,47.2269504 22.2571429,47.2836879 C22.2571429,47.2836879 22.2571429,47.2836879 22.3142857,47.2836879 C22.4285714,47.3404255 22.4857143,47.3404255 22.6,47.3971631 C22.6,47.3971631 22.6,47.3971631 22.6571429,47.3971631 C22.7714286,47.4539007 22.8285714,47.5106383 22.9428571,47.5673759 C22.9428571,47.5673759 22.9428571,47.5673759 22.9428571,47.5673759 C23.3428571,47.7943262 23.6857143,48.0780142 23.9714286,48.4184397 C23.9714286,48.4184397 23.9714286,48.4184397 24.0285714,48.4751773 C24.0857143,48.5319149 24.1428571,48.5886525 24.2,48.6453901 C24.2,48.7021277 24.2571429,48.7021277 24.2571429,48.7588652 C24.3142857,48.8156028 24.3142857,48.8723404 24.3714286,48.929078 C24.4285714,48.9858156 24.4285714,49.0425532 24.4857143,49.0425532 C24.5428571,49.0992908 24.5428571,49.1560284 24.6,49.212766 C24.6,49.2695035 24.6571429,49.3262411 24.6571429,49.3829787 C24.6571429,49.4397163 24.7142857,49.4964539 24.7142857,49.5531915 C24.7142857,49.6099291 24.7714286,49.6666667 24.7714286,49.7234043 C24.7714286,49.7801418 24.8285714,49.8368794 24.8285714,49.893617 C24.8285714,49.9503546 24.8857143,50.0070922 24.8857143,50.1205674 C24.8857143,50.177305 24.8857143,50.2340426 24.9428571,50.2907801 C24.9428571,50.3475177 24.9428571,50.4609929 25,50.5177305 C25,50.5744681 25,50.6312057 25,50.6312057 C25,50.7446809 25,50.858156 25,51.0283688 C25,53.2411348 23.2285714,55 21,55 C20.8857143,55 20.7142857,55 20.6,55 C20.5428571,55 20.4857143,55 20.4857143,55 C20.4285714,55 20.3142857,55 20.2571429,54.9432624 C20.2,54.9432624 20.1428571,54.9432624 20.0857143,54.8865248 C20.0285714,54.8865248 19.9714286,54.8297872 19.8571429,54.8297872 C19.8,54.8297872 19.7428571,54.7730496 19.6857143,54.7730496 C19.6285714,54.7730496 19.5714286,54.7163121 19.5142857,54.7163121 C19.4571429,54.7163121 19.4,54.6595745 19.3428571,54.6595745 C19.2857143,54.6595745 19.2285714,54.6028369 19.1714286,54.6028369 C19.1142857,54.6028369 19.0571429,54.5460993 19,54.4893617 C18.9428571,54.4893617 18.8857143,54.4326241 18.8857143,54.3758865 C18.8285714,54.3191489 18.7714286,54.3191489 18.7142857,54.2624113 C18.6571429,54.2624113 18.6571429,54.2056738 18.6,54.2056738 C18.5428571,54.1489362 18.4857143,54.0921986 18.4285714,54.035461 C18.4285714,54.035461 18.4285714,54.035461 18.3714286,53.9787234 C18.0285714,53.6950355 17.7428571,53.3546099 17.5142857,52.9574468 C17.5142857,52.9574468 17.5142857,52.9574468 17.5142857,52.9574468 C17.4571429,52.8439716 17.4,52.787234 17.3428571,52.6737589 C17.3428571,52.6737589 17.3428571,52.6737589 17.3428571,52.6170213 C17.2857143,52.5035461 17.2857143,52.4468085 17.2285714,52.3333333 C17.2285714,52.3333333 17.2285714,52.3333333 17.2285714,52.2765957 C17.1714286,52.1631206 17.1714286,52.0496454 17.1142857,51.9929078 C17.1142857,51.9929078 17.1142857,51.9929078 17.1142857,51.9929078 C17,51.6524823 17,51.3120567 17,50.9716312 C17,48.7588652 18.7714286,47 21,47 C21.1714286,47.0567376 21.4,47.1134752 21.6285714,47.1134752 Z M19,42.5 C19,46.641791 15.641791,50 11.5,50 C7.35820896,50 4,46.641791 4,42.5 C4,38.358209 7.35820896,35 11.5,35 C15.641791,35 19,38.358209 19,42.5 Z" id="Shape" fill="#000000" fill-rule="nonzero"></path>
            <g id="Group" transform="translate(287.000000, 18.000000)" fill="#777777">
                <path d="M41.3,4.7 C41.9,4.7 42.3,4.5 42.7,4.1 C43.1,3.7 43.3,3.2 43.3,2.6 C43.3,1.8 43,1.2 42.3,0.9 C41.5,0.5 40.4,0.3 39,0.3 C36.1,0.3 33.9,1.4 32.3,3.7 C31.7,2.1 30.6,1.1 29,0.7 C28.9,0.7 28.7,0.7 28.3,0.7 C26.9,0.7 26.2,1.3 26.2,2.6 C26.2,3.3 26.5,3.7 27,4 C28,4.5 28.5,5.5 28.5,7.1 L28.5,23.5 C28.5,24.1 28.7,24.6 29.1,25 C29.5,25.4 30,25.6 30.6,25.6 C31.2,25.6 31.7,25.4 32.1,25 C32.5,24.6 32.7,24.1 32.7,23.5 L32.7,8.8 C33.3,5.8 35.1,4.4 38.1,4.4 C38.3,4.4 38.5,4.4 38.8,4.4 C39.1,4.4 39.4,4.5 39.7,4.5 C40,4.5 40.3,4.6 40.5,4.6 C40.9,4.7 41.1,4.7 41.3,4.7 Z" id="Path"></path>
                <path d="M12.8,0.3 C10.5,0.3 8.4,1 6.4,2.4 C6.1,1.9 5.8,1.6 5.5,1.3 C4.7,0.6 3.9,0.3 2.9,0.3 C1.5,0.3 0.8,0.9 0.8,2.2 C0.8,2.9 1.1,3.3 1.6,3.6 C2.5,4.1 3,5.1 3,6.7 L3,32 C3,32.6 3.2,33.1 3.6,33.5 C4,33.9 4.5,34.1 5.1,34.1 C5.7,34.1 6.2,33.9 6.6,33.5 C7,33.1 7.2,32.6 7.2,32 L7.2,23.6 C8.9,24.9 10.8,25.5 13,25.5 C18.8,25.5 21.8,21.9 21.8,14.6 L21.8,10.2 C21.8,3.6 18.8,0.3 12.8,0.3 Z M17.5,15.2 C17.5,19.6 15.8,21.8 12.3,21.8 C10.4,21.8 8.7,21.1 7.2,19.6 L7.2,6 C8.8,4.6 10.4,3.9 12.1,3.9 C15.7,3.9 17.5,5.9 17.5,9.8 L17.5,15.2 Z" id="Shape"></path>
                <path d="M60.8,3.3 C59.1,1.3 56.6,0.3 53.2,0.3 C49.9,0.3 47.4,1.3 45.7,3.3 C44.2,5.1 43.4,7.5 43.4,10.4 L43.4,15.4 C43.4,18.4 44.2,20.7 45.7,22.5 C47.4,24.5 49.9,25.5 53.2,25.5 C56.5,25.5 59.1,24.5 60.8,22.5 C62.3,20.7 63.1,18.3 63.1,15.4 L63.1,10.4 C63.1,7.4 62.3,5.1 60.8,3.3 Z M58.8,15.4 C58.8,19.5 56.9,21.6 53.2,21.6 C49.5,21.6 47.7,19.5 47.7,15.4 L47.7,10.4 C47.7,6.3 49.5,4.2 53.2,4.2 C56.9,4.2 58.8,6.3 58.8,10.4 L58.8,15.4 Z" id="Shape"></path>
            </g>
        </g>
    </g>
</svg>