<?xml version="1.0" encoding="UTF-8"?>
<svg width="41px" height="27px" viewBox="0 0 41 27" version="1.1" xmlns="http://www.w3.org/2000/svg" xmlns:xlink="http://www.w3.org/1999/xlink">
    <!-- Generator: Sketch 46.2 (44496) - http://www.bohemiancoding.com/sketch -->
    <title>Artboard</title>
    <desc>Created with Sketch.</desc>
    <defs></defs>
    <g id="Page-1" stroke="none" stroke-width="1" fill="none" fill-rule="evenodd">
        <g id="Artboard" fill-rule="nonzero">
            <g id="eu_flag_cef-copy">
                <g id="Group">
                    <polygon id="Shape" fill="#034EA2" points="0 0.4 40.8 0.4 40.8 26.8 0 26.8"></polygon>
                    <polygon id="Shape" fill="#FFF200" points="19.5 6.1 20.4 5.5 21.3 6.1 20.9 5.1 21.8 4.5 20.7 4.5 20.4 3.5 20.1 4.5 19 4.5 19.9 5.1"></polygon>
                    <polygon id="Shape" fill="#FFF200" points="15.1 7.3 15.9 6.7 16.8 7.3 16.5 6.3 17.4 5.7 16.3 5.7 15.9 4.7 15.6 5.7 14.5 5.7 15.4 6.3"></polygon>
                    <polygon id="Shape" fill="#FFF200" points="12.7 7.8 12.4 8.8 11.3 8.8 12.2 9.5 11.8 10.4 12.7 9.8 13.5 10.4 13.2 9.5 14.1 8.8 13 8.8"></polygon>
                    <polygon id="Shape" fill="#FFF200" points="11.5 14.2 12.3 14.8 12 13.8 12.9 13.2 11.8 13.2 11.5 12.2 11.2 13.2 10.1 13.2 11 13.8 10.6 14.8"></polygon>
                    <polygon id="Shape" fill="#FFF200" points="13 17.5 12.7 16.5 12.4 17.5 11.3 17.5 12.2 18.1 11.8 19.1 12.7 18.5 13.5 19.1 13.2 18.1 14.1 17.5"></polygon>
                    <polygon id="Shape" fill="#FFF200" points="16.3 20.7 16 19.7 15.6 20.7 14.5 20.7 15.4 21.3 15.1 22.3 16 21.7 16.8 22.3 16.5 21.3 17.4 20.7"></polygon>
                    <polygon id="Shape" fill="#FFF200" points="20.7 21.8 20.4 20.8 20.1 21.8 19 21.8 19.9 22.4 19.5 23.4 20.4 22.8 21.3 23.4 20.9 22.4 21.8 21.8"></polygon>
                    <polygon id="Shape" fill="#FFF200" points="25.2 20.7 24.9 19.7 24.5 20.7 23.4 20.7 24.3 21.3 24 22.3 24.9 21.7 25.7 22.3 25.4 21.3 26.3 20.7"></polygon>
                    <polygon id="Shape" fill="#FFF200" points="28.5 17.5 28.1 16.5 27.8 17.5 26.7 17.5 27.6 18.1 27.3 19.1 28.1 18.5 29 19.1 28.7 18.1 29.5 17.5"></polygon>
                    <polygon id="Shape" fill="#FFF200" points="30.7 13.2 29.6 13.2 29.3 12.2 29 13.2 27.9 13.2 28.8 13.8 28.4 14.8 29.3 14.1 30.2 14.8 29.8 13.8"></polygon>
                    <polygon id="Shape" fill="#FFF200" points="27.3 10.4 28.1 9.8 29 10.4 28.7 9.4 29.5 8.8 28.5 8.8 28.1 7.8 27.8 8.8 26.7 8.8 27.6 9.4"></polygon>
                    <polygon id="Shape" fill="#FFF200" points="24.9 4.7 24.5 5.7 23.5 5.7 24.3 6.3 24 7.3 24.9 6.7 25.7 7.3 25.4 6.3 26.3 5.7 25.2 5.7"></polygon>
                </g>
            </g>
        </g>
    </g>
</svg>