<svg version="1" xmlns="http://www.w3.org/2000/svg" width="346.667" height="346.667" viewBox="0 0 260.000000 260.000000"><path d="M0 130v130h260V0H0v130zM162.8 26.8c11.9 3.9 21.5 9.6 30.8 18.5 12.7 12 20.7 26.6 24 43.4 2.6 13.6 1.2 19.6-5.5 24-3.3 2.3-3.9 2.3-33 2.3-34.1 0-34.7-.1-38.9-8.3-2.9-5.6-2.3-11.2 1.6-15.9 4.4-5.2 7.3-5.8 26.7-5.8h17.6l-3.2-6.1c-6.1-11.4-18.5-21.1-31.3-24.5-2.8-.8-8.5-1.4-12.7-1.4-13.7 0-24.8 4.7-35 14.9-20 20-20 51.3 0 71.1 10.4 10.3 21.4 15 35.1 15 17.3 0 32.9-8.8 43.3-24.5 4.1-6.3 7.4-8.6 12.8-9.2 8.8-.9 15.9 5.9 15.9 15.2 0 4.6-.6 6.2-5.1 13.1-8.8 13.5-19.2 22.4-34.2 29.4-10.7 4.9-20.3 7-32.5 7h-9.9l-.6 2.9c-.3 1.6-.9 4-1.3 5.5-.4 1.9-.2 2.6.8 2.6 2.7 0 9.7 5.9 11.7 9.9 4.3 8.3 3.6 16.3-1.8 23.8-5.5 7.6-17 10.4-25.5 6.3-5-2.4-9.3-6.9-10.8-11.2-.9-2.4-1.3-2.7-3.6-2-1.5.4-7.4.7-13.2.7-9.8 0-11-.2-17.1-3.2-8.7-4.3-16-11.7-20.7-21.2-3.6-7.3-3.7-7.8-3.6-18 0-8.5.4-11.7 2.2-16.1 3.6-9 10.8-17.3 19.6-22.5 1.6-.9 1.5-1.5-.9-7.3-6.4-15.7-7.8-35.2-3.6-51.1 7.4-28.1 29.4-50.8 56.2-58 11-2.9 11.4-3 24.4-2.6 10 .2 13.5.8 21.3 3.3z"/><path d="M79.3 153c-4 .9-11.1 5.1-14 8.2-1.2 1.2-3.4 4.9-4.9 8.2-2.3 5.1-2.6 6.8-2.2 13 .5 8 2.8 13.2 8 18.5 10.3 10.6 28.7 10.9 39.1.8 6-5.9 8.1-10.7 8.5-20 .4-6.8.1-8.4-2.2-13.2-6-12.2-19.3-18.6-32.3-15.5zM113.6 203.9c-5 3.3-6.9 7.4-6.4 13.7.4 4.7 1 6.1 4.2 9.2 3.4 3.5 4 3.7 10 3.7 5.5 0 6.8-.4 9.1-2.5 7.6-7.1 7.4-16.7-.5-23.4-4-3.3-11.9-3.6-16.4-.7z"/></svg>